%TF.GenerationSoftware,KiCad,Pcbnew,10.0.3*%
%TF.CreationDate,2026-06-26T17:37:38-07:00*%
%TF.ProjectId,NordBoard,4e6f7264-426f-4617-9264-2e6b69636164,rev?*%
%TF.SameCoordinates,Original*%
%TF.FileFunction,Soldermask,Bot*%
%TF.FilePolarity,Negative*%
%FSLAX46Y46*%
G04 Gerber Fmt 4.6, Leading zero omitted, Abs format (unit mm)*
G04 Created by KiCad (PCBNEW 10.0.3) date 2026-06-26 17:37:38*
%MOMM*%
%LPD*%
G01*
G04 APERTURE LIST*
%ADD10C,1.700000*%
%ADD11C,3.400000*%
%ADD12C,2.000000*%
%ADD13C,2.200000*%
%ADD14C,0.500000*%
%ADD15C,1.524000*%
%ADD16C,0.650000*%
%ADD17O,2.100000X1.000000*%
%ADD18O,1.800000X1.000000*%
G04 APERTURE END LIST*
D10*
%TO.C,SW50*%
X132000000Y-130000000D03*
D11*
X137500000Y-130000000D03*
D10*
X143000000Y-130000000D03*
D12*
X132500000Y-133800000D03*
X137500000Y-135900000D03*
%TD*%
D10*
%TO.C,SW1*%
X16500000Y-81499000D03*
D11*
X22000000Y-81499000D03*
D10*
X27500000Y-81499000D03*
D12*
X17000000Y-85299000D03*
X22000000Y-87399000D03*
%TD*%
D10*
%TO.C,SW7*%
X54500000Y-74499000D03*
D11*
X60000000Y-74499000D03*
D10*
X65500000Y-74499000D03*
D12*
X55000000Y-78299000D03*
X60000000Y-80399000D03*
%TD*%
D10*
%TO.C,SW12*%
X73500000Y-105999000D03*
D11*
X79000000Y-105999000D03*
D10*
X84500000Y-105999000D03*
D12*
X74000000Y-109799000D03*
X79000000Y-111899000D03*
%TD*%
D10*
%TO.C,SW32*%
X231500000Y-112399000D03*
D11*
X237000000Y-112399000D03*
D10*
X242500000Y-112399000D03*
D12*
X232000000Y-116199000D03*
X237000000Y-118299000D03*
%TD*%
D10*
%TO.C,SW5*%
X35500000Y-99599000D03*
D11*
X41000000Y-99599000D03*
D10*
X46500000Y-99599000D03*
D12*
X36000000Y-103399000D03*
X41000000Y-105499000D03*
%TD*%
D10*
%TO.C,SW26*%
X193500000Y-108999000D03*
D11*
X199000000Y-108999000D03*
D10*
X204500000Y-108999000D03*
D12*
X194000000Y-112799000D03*
X199000000Y-114899000D03*
%TD*%
D10*
%TO.C,SW8*%
X54500000Y-93499000D03*
D11*
X60000000Y-93499000D03*
D10*
X65500000Y-93499000D03*
D12*
X55000000Y-97299000D03*
X60000000Y-99399000D03*
%TD*%
D13*
%TO.C,H3*%
X47000000Y-67500000D03*
%TD*%
D14*
%TO.C,B1*%
X149500000Y-88650000D03*
X149500000Y-89390000D03*
X149500000Y-90130000D03*
X149500000Y-90870000D03*
X149500000Y-91610000D03*
X149500000Y-92350000D03*
%TD*%
D10*
%TO.C,SW13*%
X92500000Y-71099000D03*
D11*
X98000000Y-71099000D03*
D10*
X103500000Y-71099000D03*
D12*
X93000000Y-74899000D03*
X98000000Y-76999000D03*
%TD*%
D10*
%TO.C,SW35*%
X250620000Y-118599000D03*
D11*
X256120000Y-118599000D03*
D10*
X261620000Y-118599000D03*
D12*
X251120000Y-122399000D03*
X256120000Y-124499000D03*
%TD*%
D10*
%TO.C,SW51*%
X154000000Y-130200000D03*
D11*
X159500000Y-130200000D03*
D10*
X165000000Y-130200000D03*
D12*
X154500000Y-134000000D03*
X159500000Y-136100000D03*
%TD*%
D13*
%TO.C,H1*%
X211500000Y-127500000D03*
%TD*%
D10*
%TO.C,SW15*%
X92500000Y-109099000D03*
D11*
X98000000Y-109099000D03*
D10*
X103500000Y-109099000D03*
D12*
X93000000Y-112899000D03*
X98000000Y-114999000D03*
%TD*%
D10*
%TO.C,SW27*%
X212500000Y-67999000D03*
D11*
X218000000Y-67999000D03*
D10*
X223500000Y-67999000D03*
D12*
X213000000Y-71799000D03*
X218000000Y-73899000D03*
%TD*%
D10*
%TO.C,SW31*%
X231500000Y-93399000D03*
D11*
X237000000Y-93399000D03*
D10*
X242500000Y-93399000D03*
D12*
X232000000Y-97199000D03*
X237000000Y-99299000D03*
%TD*%
D14*
%TO.C,B3*%
X149500000Y-142540000D03*
X149500000Y-143280000D03*
X149500000Y-144020000D03*
X149500000Y-144760000D03*
X149500000Y-145500000D03*
X149500000Y-146240000D03*
%TD*%
%TO.C,B2*%
X149500000Y-102000000D03*
X149500000Y-102740000D03*
X149500000Y-103480000D03*
X149500000Y-104220000D03*
X149500000Y-104960000D03*
X149500000Y-105700000D03*
%TD*%
D10*
%TO.C,SW16*%
X94000000Y-132500000D03*
D11*
X99500000Y-132500000D03*
D10*
X105000000Y-132500000D03*
D12*
X94500000Y-136300000D03*
X99500000Y-138400000D03*
%TD*%
D10*
%TO.C,SW34*%
X250620000Y-99599000D03*
D11*
X256120000Y-99599000D03*
D10*
X261620000Y-99599000D03*
D12*
X251120000Y-103399000D03*
X256120000Y-105499000D03*
%TD*%
D10*
%TO.C,SW21*%
X174500000Y-75499000D03*
D11*
X180000000Y-75499000D03*
D10*
X185500000Y-75499000D03*
D12*
X175000000Y-79299000D03*
X180000000Y-81399000D03*
%TD*%
D10*
%TO.C,SW22*%
X174500000Y-94499000D03*
D11*
X180000000Y-94499000D03*
D10*
X185500000Y-94499000D03*
D12*
X175000000Y-98299000D03*
X180000000Y-100399000D03*
%TD*%
D13*
%TO.C,H4*%
X250000000Y-67500000D03*
%TD*%
D10*
%TO.C,SW6*%
X35500000Y-118699000D03*
D11*
X41000000Y-118699000D03*
D10*
X46500000Y-118699000D03*
D12*
X36000000Y-122499000D03*
X41000000Y-124599000D03*
%TD*%
D15*
%TO.C,U1*%
X127880000Y-92047500D03*
X127880000Y-94587500D03*
X127880000Y-97127500D03*
X127880000Y-99667500D03*
X127880000Y-102207500D03*
X127880000Y-104747500D03*
X127880000Y-107287500D03*
X143120000Y-107287500D03*
X143120000Y-104747500D03*
X143120000Y-102207500D03*
X143120000Y-99667500D03*
X143120000Y-97127500D03*
X143120000Y-94587500D03*
X143120000Y-92047500D03*
%TD*%
D10*
%TO.C,SW24*%
X193500000Y-70999000D03*
D11*
X199000000Y-70999000D03*
D10*
X204500000Y-70999000D03*
D12*
X194000000Y-74799000D03*
X199000000Y-76899000D03*
%TD*%
D10*
%TO.C,SW18*%
X111500000Y-94499000D03*
D11*
X117000000Y-94499000D03*
D10*
X122500000Y-94499000D03*
D12*
X112000000Y-98299000D03*
X117000000Y-100399000D03*
%TD*%
D10*
%TO.C,SW14*%
X92500000Y-90099000D03*
D11*
X98000000Y-90099000D03*
D10*
X103500000Y-90099000D03*
D12*
X93000000Y-93899000D03*
X98000000Y-95999000D03*
%TD*%
D10*
%TO.C,SW37*%
X269620000Y-81599000D03*
D11*
X275120000Y-81599000D03*
D10*
X280620000Y-81599000D03*
D12*
X270120000Y-85399000D03*
X275120000Y-87499000D03*
%TD*%
D10*
%TO.C,SW20*%
X113000000Y-135600000D03*
D11*
X118500000Y-135600000D03*
D10*
X124000000Y-135600000D03*
D12*
X113500000Y-139400000D03*
X118500000Y-141500000D03*
%TD*%
D10*
%TO.C,SW2*%
X16500000Y-100500000D03*
D11*
X22000000Y-100500000D03*
D10*
X27500000Y-100500000D03*
D12*
X17000000Y-104300000D03*
X22000000Y-106400000D03*
%TD*%
D10*
%TO.C,SW17*%
X111500000Y-75499000D03*
D11*
X117000000Y-75499000D03*
D10*
X122500000Y-75499000D03*
D12*
X112000000Y-79299000D03*
X117000000Y-81399000D03*
%TD*%
D16*
%TO.C,P1*%
X141220000Y-118390000D03*
X141220000Y-112610000D03*
D17*
X140720000Y-119820000D03*
D18*
X144900000Y-119820000D03*
D17*
X140720000Y-111180000D03*
D18*
X144900000Y-111180000D03*
%TD*%
D10*
%TO.C,SW33*%
X250620000Y-80599000D03*
D11*
X256120000Y-80599000D03*
D10*
X261620000Y-80599000D03*
D12*
X251120000Y-84399000D03*
X256120000Y-86499000D03*
%TD*%
D10*
%TO.C,SW4*%
X35500000Y-80599000D03*
D11*
X41000000Y-80599000D03*
D10*
X46500000Y-80599000D03*
D12*
X36000000Y-84399000D03*
X41000000Y-86499000D03*
%TD*%
D10*
%TO.C,SW19*%
X111500000Y-113499000D03*
D11*
X117000000Y-113499000D03*
D10*
X122500000Y-113499000D03*
D12*
X112000000Y-117299000D03*
X117000000Y-119399000D03*
%TD*%
D10*
%TO.C,SW25*%
X193500000Y-89999000D03*
D11*
X199000000Y-89999000D03*
D10*
X204500000Y-89999000D03*
D12*
X194000000Y-93799000D03*
X199000000Y-95899000D03*
%TD*%
D14*
%TO.C,B4*%
X149500000Y-129540000D03*
X149500000Y-130280000D03*
X149500000Y-131020000D03*
X149500000Y-131760000D03*
X149500000Y-132500000D03*
X149500000Y-133240000D03*
%TD*%
D10*
%TO.C,SW23*%
X174500000Y-113499000D03*
D11*
X180000000Y-113499000D03*
D10*
X185500000Y-113499000D03*
D12*
X175000000Y-117299000D03*
X180000000Y-119399000D03*
%TD*%
D13*
%TO.C,H2*%
X85500000Y-127500000D03*
%TD*%
D10*
%TO.C,SW3*%
X16500000Y-119500000D03*
D11*
X22000000Y-119500000D03*
D10*
X27500000Y-119500000D03*
D12*
X17000000Y-123300000D03*
X22000000Y-125400000D03*
%TD*%
D10*
%TO.C,SW36*%
X192000000Y-132600000D03*
D11*
X197500000Y-132600000D03*
D10*
X203000000Y-132600000D03*
D12*
X192500000Y-136400000D03*
X197500000Y-138500000D03*
%TD*%
D10*
%TO.C,SW10*%
X73500000Y-67999000D03*
D11*
X79000000Y-67999000D03*
D10*
X84500000Y-67999000D03*
D12*
X74000000Y-71799000D03*
X79000000Y-73899000D03*
%TD*%
D10*
%TO.C,SW39*%
X269600000Y-119799000D03*
D11*
X275100000Y-119799000D03*
D10*
X280600000Y-119799000D03*
D12*
X270100000Y-123599000D03*
X275100000Y-125699000D03*
%TD*%
D10*
%TO.C,SW11*%
X73500000Y-86999000D03*
D11*
X79000000Y-86999000D03*
D10*
X84500000Y-86999000D03*
D12*
X74000000Y-90799000D03*
X79000000Y-92899000D03*
%TD*%
D10*
%TO.C,SW30*%
X231500000Y-74499000D03*
D11*
X237000000Y-74499000D03*
D10*
X242500000Y-74499000D03*
D12*
X232000000Y-78299000D03*
X237000000Y-80399000D03*
%TD*%
D10*
%TO.C,SW28*%
X212500000Y-86799000D03*
D11*
X218000000Y-86799000D03*
D10*
X223500000Y-86799000D03*
D12*
X213000000Y-90599000D03*
X218000000Y-92699000D03*
%TD*%
D15*
%TO.C,U2*%
X153880000Y-91999000D03*
X153880000Y-94539000D03*
X153880000Y-97079000D03*
X153880000Y-99619000D03*
X153880000Y-102159000D03*
X153880000Y-104699000D03*
X153880000Y-107239000D03*
X169120000Y-107239000D03*
X169120000Y-104699000D03*
X169120000Y-102159000D03*
X169120000Y-99619000D03*
X169120000Y-97079000D03*
X169120000Y-94539000D03*
X169120000Y-91999000D03*
%TD*%
D10*
%TO.C,SW38*%
X269600000Y-100699000D03*
D11*
X275100000Y-100699000D03*
D10*
X280600000Y-100699000D03*
D12*
X270100000Y-104499000D03*
X275100000Y-106599000D03*
%TD*%
D10*
%TO.C,SW9*%
X54500000Y-112499000D03*
D11*
X60000000Y-112499000D03*
D10*
X65500000Y-112499000D03*
D12*
X55000000Y-116299000D03*
X60000000Y-118399000D03*
%TD*%
D10*
%TO.C,SW40*%
X173000000Y-135600000D03*
D11*
X178500000Y-135600000D03*
D10*
X184000000Y-135600000D03*
D12*
X173500000Y-139400000D03*
X178500000Y-141500000D03*
%TD*%
D10*
%TO.C,SW29*%
X212500000Y-105799000D03*
D11*
X218000000Y-105799000D03*
D10*
X223500000Y-105799000D03*
D12*
X213000000Y-109599000D03*
X218000000Y-111699000D03*
%TD*%
D16*
%TO.C,P2*%
X155780000Y-112610000D03*
X155780000Y-118390000D03*
D17*
X156280000Y-111180000D03*
D18*
X152100000Y-111180000D03*
D17*
X156280000Y-119820000D03*
D18*
X152100000Y-119820000D03*
%TD*%
M02*
