%TF.GenerationSoftware,KiCad,Pcbnew,10.0.3*%
%TF.CreationDate,2026-06-26T17:37:38-07:00*%
%TF.ProjectId,NordBoard,4e6f7264-426f-4617-9264-2e6b69636164,rev?*%
%TF.SameCoordinates,Original*%
%TF.FileFunction,Copper,L1,Top*%
%TF.FilePolarity,Positive*%
%FSLAX46Y46*%
G04 Gerber Fmt 4.6, Leading zero omitted, Abs format (unit mm)*
G04 Created by KiCad (PCBNEW 10.0.3) date 2026-06-26 17:37:38*
%MOMM*%
%LPD*%
G01*
G04 APERTURE LIST*
G04 Aperture macros list*
%AMRoundRect*
0 Rectangle with rounded corners*
0 $1 Rounding radius*
0 $2 $3 $4 $5 $6 $7 $8 $9 X,Y pos of 4 corners*
0 Add a 4 corners polygon primitive as box body*
4,1,4,$2,$3,$4,$5,$6,$7,$8,$9,$2,$3,0*
0 Add four circle primitives for the rounded corners*
1,1,$1+$1,$2,$3*
1,1,$1+$1,$4,$5*
1,1,$1+$1,$6,$7*
1,1,$1+$1,$8,$9*
0 Add four rect primitives between the rounded corners*
20,1,$1+$1,$2,$3,$4,$5,0*
20,1,$1+$1,$4,$5,$6,$7,0*
20,1,$1+$1,$6,$7,$8,$9,0*
20,1,$1+$1,$8,$9,$2,$3,0*%
%AMOutline4P*
0 Free polygon, 4 corners , with rotation*
0 The origin of the aperture is its center*
0 number of corners: always 4*
0 $1 to $8 corner X, Y*
0 $9 Rotation angle, in degrees counterclockwise*
0 create outline with 4 corners*
4,1,4,$1,$2,$3,$4,$5,$6,$7,$8,$1,$2,$9*%
G04 Aperture macros list end*
%TA.AperFunction,ComponentPad*%
%ADD10C,2.000000*%
%TD*%
%TA.AperFunction,SMDPad,CuDef*%
%ADD11Outline4P,-1.800000X-1.150000X1.800000X-0.550000X1.800000X0.550000X-1.800000X1.150000X0.000000*%
%TD*%
%TA.AperFunction,SMDPad,CuDef*%
%ADD12Outline4P,-1.800000X-1.150000X1.800000X-0.550000X1.800000X0.550000X-1.800000X1.150000X180.000000*%
%TD*%
%TA.AperFunction,SMDPad,CuDef*%
%ADD13RoundRect,0.250000X-0.350000X-0.450000X0.350000X-0.450000X0.350000X0.450000X-0.350000X0.450000X0*%
%TD*%
%TA.AperFunction,SMDPad,CuDef*%
%ADD14RoundRect,0.152400X1.063600X0.609600X-1.063600X0.609600X-1.063600X-0.609600X1.063600X-0.609600X0*%
%TD*%
%TA.AperFunction,ComponentPad*%
%ADD15C,1.524000*%
%TD*%
%TA.AperFunction,SMDPad,CuDef*%
%ADD16RoundRect,0.152400X-1.063600X-0.609600X1.063600X-0.609600X1.063600X0.609600X-1.063600X0.609600X0*%
%TD*%
%TA.AperFunction,SMDPad,CuDef*%
%ADD17RoundRect,0.150000X0.425000X-0.150000X0.425000X0.150000X-0.425000X0.150000X-0.425000X-0.150000X0*%
%TD*%
%TA.AperFunction,SMDPad,CuDef*%
%ADD18RoundRect,0.075000X0.500000X-0.075000X0.500000X0.075000X-0.500000X0.075000X-0.500000X-0.075000X0*%
%TD*%
%TA.AperFunction,ComponentPad*%
%ADD19O,2.100000X1.000000*%
%TD*%
%TA.AperFunction,ComponentPad*%
%ADD20O,1.800000X1.000000*%
%TD*%
%TA.AperFunction,SMDPad,CuDef*%
%ADD21RoundRect,0.150000X-0.425000X0.150000X-0.425000X-0.150000X0.425000X-0.150000X0.425000X0.150000X0*%
%TD*%
%TA.AperFunction,SMDPad,CuDef*%
%ADD22RoundRect,0.075000X-0.500000X0.075000X-0.500000X-0.075000X0.500000X-0.075000X0.500000X0.075000X0*%
%TD*%
%TA.AperFunction,Conductor*%
%ADD23C,0.200000*%
%TD*%
%TA.AperFunction,Conductor*%
%ADD24C,0.500000*%
%TD*%
G04 APERTURE END LIST*
D10*
%TO.P,SW50,1,1_1*%
%TO.N,/COL5*%
X132500000Y-133800000D03*
%TO.P,SW50,2,2_2*%
%TO.N,Net-(D50-A)*%
X137500000Y-135900000D03*
%TD*%
%TO.P,SW1,1,1_1*%
%TO.N,/COL0*%
X17000000Y-85299000D03*
%TO.P,SW1,2,2_2*%
%TO.N,Net-(D1-A)*%
X22000000Y-87399000D03*
%TD*%
D11*
%TO.P,D30,1,K_1*%
%TO.N,/ROW4*%
X234100000Y-83899000D03*
D12*
%TO.P,D30,2,A_2*%
%TO.N,Net-(D30-A)*%
X239900000Y-83899000D03*
%TD*%
D11*
%TO.P,D39,1,K_1*%
%TO.N,/ROW6*%
X272050000Y-129199000D03*
D12*
%TO.P,D39,2,A_2*%
%TO.N,Net-(D39-A)*%
X277850000Y-129199000D03*
%TD*%
D10*
%TO.P,SW7,1,1_1*%
%TO.N,/COL2*%
X55000000Y-78299000D03*
%TO.P,SW7,2,2_2*%
%TO.N,Net-(D7-A)*%
X60000000Y-80399000D03*
%TD*%
%TO.P,SW12,1,1_1*%
%TO.N,/COL3*%
X74000000Y-109799000D03*
%TO.P,SW12,2,2_2*%
%TO.N,Net-(D12-A)*%
X79000000Y-111899000D03*
%TD*%
D11*
%TO.P,D24,1,K_1*%
%TO.N,/ROW4*%
X196100000Y-80699000D03*
D12*
%TO.P,D24,2,A_2*%
%TO.N,Net-(D24-A)*%
X201900000Y-80699000D03*
%TD*%
D10*
%TO.P,SW32,1,1_1*%
%TO.N,/COL9*%
X232000000Y-116199000D03*
%TO.P,SW32,2,2_2*%
%TO.N,Net-(D32-A)*%
X237000000Y-118299000D03*
%TD*%
%TO.P,SW5,1,1_1*%
%TO.N,/COL1*%
X36000000Y-103399000D03*
%TO.P,SW5,2,2_2*%
%TO.N,Net-(D5-A)*%
X41000000Y-105499000D03*
%TD*%
D11*
%TO.P,D1,1,K_1*%
%TO.N,/ROW0*%
X19100000Y-90999000D03*
D12*
%TO.P,D1,2,A_2*%
%TO.N,Net-(D1-A)*%
X24900000Y-90999000D03*
%TD*%
D10*
%TO.P,SW26,1,1_1*%
%TO.N,/COL7*%
X194000000Y-112799000D03*
%TO.P,SW26,2,2_2*%
%TO.N,Net-(D26-A)*%
X199000000Y-114899000D03*
%TD*%
%TO.P,SW8,1,1_1*%
%TO.N,/COL2*%
X55000000Y-97299000D03*
%TO.P,SW8,2,2_2*%
%TO.N,Net-(D8-A)*%
X60000000Y-99399000D03*
%TD*%
D11*
%TO.P,D4,1,K_1*%
%TO.N,/ROW0*%
X38100000Y-89999000D03*
D12*
%TO.P,D4,2,A_2*%
%TO.N,Net-(D4-A)*%
X43900000Y-89999000D03*
%TD*%
D11*
%TO.P,D33,1,K_1*%
%TO.N,/ROW4*%
X253220000Y-90299000D03*
D12*
%TO.P,D33,2,A_2*%
%TO.N,Net-(D33-A)*%
X259020000Y-90299000D03*
%TD*%
D10*
%TO.P,SW13,1,1_1*%
%TO.N,/COL4*%
X93000000Y-74899000D03*
%TO.P,SW13,2,2_2*%
%TO.N,Net-(D13-A)*%
X98000000Y-76999000D03*
%TD*%
%TO.P,SW35,1,1_1*%
%TO.N,/COL10*%
X251120000Y-122399000D03*
%TO.P,SW35,2,2_2*%
%TO.N,Net-(D35-A)*%
X256120000Y-124499000D03*
%TD*%
D11*
%TO.P,D13,1,K_1*%
%TO.N,/ROW0*%
X95100000Y-80499000D03*
D12*
%TO.P,D13,2,A_2*%
%TO.N,Net-(D13-A)*%
X100900000Y-80499000D03*
%TD*%
D11*
%TO.P,D50,1,K_1*%
%TO.N,/ROW3*%
X134600000Y-139500000D03*
D12*
%TO.P,D50,2,A_2*%
%TO.N,Net-(D50-A)*%
X140400000Y-139500000D03*
%TD*%
D11*
%TO.P,D18,1,K_1*%
%TO.N,/ROW1*%
X114100000Y-103899000D03*
D12*
%TO.P,D18,2,A_2*%
%TO.N,Net-(D18-A)*%
X119900000Y-103899000D03*
%TD*%
D11*
%TO.P,D21,1,K_1*%
%TO.N,/ROW4*%
X177100000Y-84899000D03*
D12*
%TO.P,D21,2,A_2*%
%TO.N,Net-(D21-A)*%
X182900000Y-84899000D03*
%TD*%
D10*
%TO.P,SW51,1,1_1*%
%TO.N,/COL11*%
X154500000Y-134000000D03*
%TO.P,SW51,2,2_2*%
%TO.N,Net-(D51-A)*%
X159500000Y-136100000D03*
%TD*%
D11*
%TO.P,D32,1,K_1*%
%TO.N,/ROW6*%
X234100000Y-121899000D03*
D12*
%TO.P,D32,2,A_2*%
%TO.N,Net-(D32-A)*%
X239900000Y-121899000D03*
%TD*%
D11*
%TO.P,D27,1,K_1*%
%TO.N,/ROW4*%
X215100000Y-77299000D03*
D12*
%TO.P,D27,2,A_2*%
%TO.N,Net-(D27-A)*%
X220900000Y-77299000D03*
%TD*%
D11*
%TO.P,D9,1,K_1*%
%TO.N,/ROW2*%
X57100000Y-121899000D03*
D12*
%TO.P,D9,2,A_2*%
%TO.N,Net-(D9-A)*%
X62900000Y-121899000D03*
%TD*%
D11*
%TO.P,D37,1,K_1*%
%TO.N,/ROW4*%
X272100000Y-90919000D03*
D12*
%TO.P,D37,2,A_2*%
%TO.N,Net-(D37-A)*%
X277900000Y-90919000D03*
%TD*%
D10*
%TO.P,SW15,1,1_1*%
%TO.N,/COL4*%
X93000000Y-112899000D03*
%TO.P,SW15,2,2_2*%
%TO.N,Net-(D15-A)*%
X98000000Y-114999000D03*
%TD*%
D11*
%TO.P,D11,1,K_1*%
%TO.N,/ROW1*%
X76100000Y-96499000D03*
D12*
%TO.P,D11,2,A_2*%
%TO.N,Net-(D11-A)*%
X81900000Y-96499000D03*
%TD*%
D10*
%TO.P,SW27,1,1_1*%
%TO.N,/COL8*%
X213000000Y-71799000D03*
%TO.P,SW27,2,2_2*%
%TO.N,Net-(D27-A)*%
X218000000Y-73899000D03*
%TD*%
D11*
%TO.P,D40,1,K_1*%
%TO.N,/ROW7*%
X175600000Y-145000000D03*
D12*
%TO.P,D40,2,A_2*%
%TO.N,Net-(D40-A)*%
X181400000Y-145000000D03*
%TD*%
D11*
%TO.P,D7,1,K_1*%
%TO.N,/ROW0*%
X57100000Y-83899000D03*
D12*
%TO.P,D7,2,A_2*%
%TO.N,Net-(D7-A)*%
X62900000Y-83899000D03*
%TD*%
D10*
%TO.P,SW31,1,1_1*%
%TO.N,/COL9*%
X232000000Y-97199000D03*
%TO.P,SW31,2,2_2*%
%TO.N,Net-(D31-A)*%
X237000000Y-99299000D03*
%TD*%
D11*
%TO.P,D22,1,K_1*%
%TO.N,/ROW5*%
X177100000Y-103899000D03*
D12*
%TO.P,D22,2,A_2*%
%TO.N,Net-(D22-A)*%
X182900000Y-103899000D03*
%TD*%
D11*
%TO.P,D35,1,K_1*%
%TO.N,/ROW6*%
X253220000Y-128299000D03*
D12*
%TO.P,D35,2,A_2*%
%TO.N,Net-(D35-A)*%
X259020000Y-128299000D03*
%TD*%
D13*
%TO.P,R1,1*%
%TO.N,/INTERCON_L*%
X141500000Y-122000000D03*
%TO.P,R1,2*%
%TO.N,/3V3_L*%
X143500000Y-122000000D03*
%TD*%
D11*
%TO.P,D12,1,K_1*%
%TO.N,/ROW2*%
X76100000Y-115499000D03*
D12*
%TO.P,D12,2,A_2*%
%TO.N,Net-(D12-A)*%
X81900000Y-115499000D03*
%TD*%
D11*
%TO.P,D28,1,K_1*%
%TO.N,/ROW5*%
X215100000Y-96299000D03*
D12*
%TO.P,D28,2,A_2*%
%TO.N,Net-(D28-A)*%
X220900000Y-96299000D03*
%TD*%
D11*
%TO.P,D14,1,K_1*%
%TO.N,/ROW1*%
X95100000Y-99499000D03*
D12*
%TO.P,D14,2,A_2*%
%TO.N,Net-(D14-A)*%
X100900000Y-99499000D03*
%TD*%
D10*
%TO.P,SW16,1,1_1*%
%TO.N,/COL3*%
X94500000Y-136300000D03*
%TO.P,SW16,2,2_2*%
%TO.N,Net-(D16-A)*%
X99500000Y-138400000D03*
%TD*%
D11*
%TO.P,D19,1,K_1*%
%TO.N,/ROW2*%
X114100000Y-122999000D03*
D12*
%TO.P,D19,2,A_2*%
%TO.N,Net-(D19-A)*%
X119900000Y-122999000D03*
%TD*%
D11*
%TO.P,D31,1,K_1*%
%TO.N,/ROW5*%
X234100000Y-102899000D03*
D12*
%TO.P,D31,2,A_2*%
%TO.N,Net-(D31-A)*%
X239900000Y-102899000D03*
%TD*%
D10*
%TO.P,SW34,1,1_1*%
%TO.N,/COL10*%
X251120000Y-103399000D03*
%TO.P,SW34,2,2_2*%
%TO.N,Net-(D34-A)*%
X256120000Y-105499000D03*
%TD*%
%TO.P,SW21,1,1_1*%
%TO.N,/COL6*%
X175000000Y-79299000D03*
%TO.P,SW21,2,2_2*%
%TO.N,Net-(D21-A)*%
X180000000Y-81399000D03*
%TD*%
D11*
%TO.P,D26,1,K_1*%
%TO.N,/ROW6*%
X196100000Y-118699000D03*
D12*
%TO.P,D26,2,A_2*%
%TO.N,Net-(D26-A)*%
X201900000Y-118699000D03*
%TD*%
D10*
%TO.P,SW22,1,1_1*%
%TO.N,/COL6*%
X175000000Y-98299000D03*
%TO.P,SW22,2,2_2*%
%TO.N,Net-(D22-A)*%
X180000000Y-100399000D03*
%TD*%
%TO.P,SW6,1,1_1*%
%TO.N,/COL1*%
X36000000Y-122499000D03*
%TO.P,SW6,2,2_2*%
%TO.N,Net-(D6-A)*%
X41000000Y-124599000D03*
%TD*%
D14*
%TO.P,U1,1,PA02_A0_D0_1*%
%TO.N,/INTERCON_L*%
X127045000Y-92047500D03*
D15*
X127880000Y-92047500D03*
D14*
%TO.P,U1,2,PA4_A1_D1_2*%
%TO.N,/ROW0*%
X127045000Y-94587500D03*
D15*
X127880000Y-94587500D03*
D14*
%TO.P,U1,3,PA10_A2_D2_3*%
%TO.N,/ROW1*%
X127045000Y-97127500D03*
D15*
X127880000Y-97127500D03*
D14*
%TO.P,U1,4,PA11_A3_D3_4*%
%TO.N,/ROW2*%
X127045000Y-99667500D03*
D15*
X127880000Y-99667500D03*
D14*
%TO.P,U1,5,PA8_A4_D4_SDA_5*%
%TO.N,/ROW3*%
X127045000Y-102207500D03*
D15*
X127880000Y-102207500D03*
D14*
%TO.P,U1,6,PA9_A5_D5_SCL_6*%
%TO.N,/COL0*%
X127045000Y-104747500D03*
D15*
X127880000Y-104747500D03*
D14*
%TO.P,U1,7,PB08_A6_D6_TX_7*%
%TO.N,/COL1*%
X127045000Y-107287500D03*
D15*
X127880000Y-107287500D03*
%TO.P,U1,8,PB09_A7_D7_RX_8*%
%TO.N,/COL5*%
X143120000Y-107287500D03*
D16*
X143955000Y-107287500D03*
D15*
%TO.P,U1,9,PA7_A8_D8_SCK_9*%
%TO.N,/COL4*%
X143120000Y-104747500D03*
D16*
X143955000Y-104747500D03*
D15*
%TO.P,U1,10,PA5_A9_D9_MISO_10*%
%TO.N,/COL3*%
X143120000Y-102207500D03*
D16*
X143955000Y-102207500D03*
D15*
%TO.P,U1,11,PA6_A10_D10_MOSI_11*%
%TO.N,/COL2*%
X143120000Y-99667500D03*
D16*
X143955000Y-99667500D03*
D15*
%TO.P,U1,12,3V3_12*%
%TO.N,/3V3_L*%
X143120000Y-97127500D03*
D16*
X143955000Y-97127500D03*
D15*
%TO.P,U1,13,GND_13*%
%TO.N,/GND_L*%
X143120000Y-94587500D03*
D16*
X143955000Y-94587500D03*
D15*
%TO.P,U1,14,5V_14*%
%TO.N,/5V_L*%
X143120000Y-92047500D03*
D16*
X143955000Y-92047500D03*
%TD*%
D10*
%TO.P,SW24,1,1_1*%
%TO.N,/COL7*%
X194000000Y-74799000D03*
%TO.P,SW24,2,2_2*%
%TO.N,Net-(D24-A)*%
X199000000Y-76899000D03*
%TD*%
%TO.P,SW18,1,1_1*%
%TO.N,/COL5*%
X112000000Y-98299000D03*
%TO.P,SW18,2,2_2*%
%TO.N,Net-(D18-A)*%
X117000000Y-100399000D03*
%TD*%
%TO.P,SW14,1,1_1*%
%TO.N,/COL4*%
X93000000Y-93899000D03*
%TO.P,SW14,2,2_2*%
%TO.N,Net-(D14-A)*%
X98000000Y-95999000D03*
%TD*%
%TO.P,SW37,1,1_1*%
%TO.N,/COL11*%
X270120000Y-85399000D03*
%TO.P,SW37,2,2_2*%
%TO.N,Net-(D37-A)*%
X275120000Y-87499000D03*
%TD*%
%TO.P,SW20,1,1_1*%
%TO.N,/COL4*%
X113500000Y-139400000D03*
%TO.P,SW20,2,2_2*%
%TO.N,Net-(D20-A)*%
X118500000Y-141500000D03*
%TD*%
%TO.P,SW2,1,1_1*%
%TO.N,/COL0*%
X17000000Y-104300000D03*
%TO.P,SW2,2,2_2*%
%TO.N,Net-(D2-A)*%
X22000000Y-106400000D03*
%TD*%
D11*
%TO.P,D15,1,K_1*%
%TO.N,/ROW2*%
X95100000Y-118499000D03*
D12*
%TO.P,D15,2,A_2*%
%TO.N,Net-(D15-A)*%
X100900000Y-118499000D03*
%TD*%
D11*
%TO.P,D23,1,K_1*%
%TO.N,/ROW6*%
X177000000Y-122899000D03*
D12*
%TO.P,D23,2,A_2*%
%TO.N,Net-(D23-A)*%
X182800000Y-122899000D03*
%TD*%
D11*
%TO.P,D16,1,K_1*%
%TO.N,/ROW3*%
X97100000Y-142000000D03*
D12*
%TO.P,D16,2,A_2*%
%TO.N,Net-(D16-A)*%
X102900000Y-142000000D03*
%TD*%
D10*
%TO.P,SW17,1,1_1*%
%TO.N,/COL5*%
X112000000Y-79299000D03*
%TO.P,SW17,2,2_2*%
%TO.N,Net-(D17-A)*%
X117000000Y-81399000D03*
%TD*%
D11*
%TO.P,D10,1,K_1*%
%TO.N,/ROW0*%
X76100000Y-77499000D03*
D12*
%TO.P,D10,2,A_2*%
%TO.N,Net-(D10-A)*%
X81900000Y-77499000D03*
%TD*%
D11*
%TO.P,D2,1,K_1*%
%TO.N,/ROW1*%
X19100000Y-109999000D03*
D12*
%TO.P,D2,2,A_2*%
%TO.N,Net-(D2-A)*%
X24900000Y-109999000D03*
%TD*%
D17*
%TO.P,P1,A1,GND_A1*%
%TO.N,/GND_L*%
X140145000Y-118700000D03*
%TO.P,P1,A4,VBUS_A4*%
%TO.N,/5V_L*%
X140145000Y-117900000D03*
D18*
%TO.P,P1,A5,CC1_A5*%
%TO.N,unconnected-(P1-CC1-PadA5)*%
X140145000Y-116750000D03*
%TO.P,P1,A6,D+_A6*%
%TO.N,/INTERCON_L*%
X140145000Y-115750000D03*
%TO.P,P1,A7,D-_A7*%
%TO.N,unconnected-(P1-D--PadA7)*%
X140145000Y-115250000D03*
%TO.P,P1,A8,SBU1_A8*%
%TO.N,unconnected-(P1-SBU1-PadA8)*%
X140145000Y-114250000D03*
D17*
%TO.P,P1,A9,VBUS_A9*%
%TO.N,/5V_L*%
X140145000Y-113100000D03*
%TO.P,P1,A12,GND_A12*%
%TO.N,/GND_L*%
X140145000Y-112300000D03*
%TO.P,P1,B1,GND_B1*%
X140145000Y-112300000D03*
%TO.P,P1,B4,VBUS_B4*%
%TO.N,/5V_L*%
X140145000Y-113100000D03*
D18*
%TO.P,P1,B5,CC2_B5*%
%TO.N,unconnected-(P1-CC2-PadB5)*%
X140145000Y-113750000D03*
%TO.P,P1,B6,D+_B6*%
%TO.N,/INTERCON_L*%
X140145000Y-114750000D03*
%TO.P,P1,B7,D-_B7*%
%TO.N,unconnected-(P1-D--PadB7)*%
X140145000Y-116250000D03*
%TO.P,P1,B8,SBU2_B8*%
%TO.N,unconnected-(P1-SBU2-PadB8)*%
X140145000Y-117250000D03*
D17*
%TO.P,P1,B9,VBUS_B9*%
%TO.N,/5V_L*%
X140145000Y-117900000D03*
%TO.P,P1,B12,GND_B12*%
%TO.N,/GND_L*%
X140145000Y-118700000D03*
D19*
%TO.P,P1,SH,SHIELD_SH*%
X140720000Y-119820000D03*
D20*
X144900000Y-119820000D03*
D19*
X140720000Y-111180000D03*
D20*
X144900000Y-111180000D03*
%TD*%
D10*
%TO.P,SW33,1,1_1*%
%TO.N,/COL10*%
X251120000Y-84399000D03*
%TO.P,SW33,2,2_2*%
%TO.N,Net-(D33-A)*%
X256120000Y-86499000D03*
%TD*%
%TO.P,SW4,1,1_1*%
%TO.N,/COL1*%
X36000000Y-84399000D03*
%TO.P,SW4,2,2_2*%
%TO.N,Net-(D4-A)*%
X41000000Y-86499000D03*
%TD*%
%TO.P,SW19,1,1_1*%
%TO.N,/COL5*%
X112000000Y-117299000D03*
%TO.P,SW19,2,2_2*%
%TO.N,Net-(D19-A)*%
X117000000Y-119399000D03*
%TD*%
D11*
%TO.P,D17,1,K_1*%
%TO.N,/ROW0*%
X114100000Y-84899000D03*
D12*
%TO.P,D17,2,A_2*%
%TO.N,Net-(D17-A)*%
X119900000Y-84899000D03*
%TD*%
D10*
%TO.P,SW25,1,1_1*%
%TO.N,/COL7*%
X194000000Y-93799000D03*
%TO.P,SW25,2,2_2*%
%TO.N,Net-(D25-A)*%
X199000000Y-95899000D03*
%TD*%
D11*
%TO.P,D5,1,K_1*%
%TO.N,/ROW1*%
X38100000Y-108999000D03*
D12*
%TO.P,D5,2,A_2*%
%TO.N,Net-(D5-A)*%
X43900000Y-108999000D03*
%TD*%
D11*
%TO.P,D29,1,K_1*%
%TO.N,/ROW6*%
X215100000Y-115299000D03*
D12*
%TO.P,D29,2,A_2*%
%TO.N,Net-(D29-A)*%
X220900000Y-115299000D03*
%TD*%
D10*
%TO.P,SW23,1,1_1*%
%TO.N,/COL6*%
X175000000Y-117299000D03*
%TO.P,SW23,2,2_2*%
%TO.N,Net-(D23-A)*%
X180000000Y-119399000D03*
%TD*%
%TO.P,SW3,1,1_1*%
%TO.N,/COL0*%
X17000000Y-123300000D03*
%TO.P,SW3,2,2_2*%
%TO.N,Net-(D3-A)*%
X22000000Y-125400000D03*
%TD*%
%TO.P,SW36,1,1_1*%
%TO.N,/COL9*%
X192500000Y-136400000D03*
%TO.P,SW36,2,2_2*%
%TO.N,Net-(D36-A)*%
X197500000Y-138500000D03*
%TD*%
D11*
%TO.P,D51,1,K_1*%
%TO.N,/ROW7*%
X156600000Y-139500000D03*
D12*
%TO.P,D51,2,A_2*%
%TO.N,Net-(D51-A)*%
X162400000Y-139500000D03*
%TD*%
D11*
%TO.P,D20,1,K_1*%
%TO.N,/ROW3*%
X115600000Y-145100000D03*
D12*
%TO.P,D20,2,A_2*%
%TO.N,Net-(D20-A)*%
X121400000Y-145100000D03*
%TD*%
D11*
%TO.P,D3,1,K_1*%
%TO.N,/ROW2*%
X19100000Y-128999000D03*
D12*
%TO.P,D3,2,A_2*%
%TO.N,Net-(D3-A)*%
X24900000Y-128999000D03*
%TD*%
D10*
%TO.P,SW10,1,1_1*%
%TO.N,/COL3*%
X74000000Y-71799000D03*
%TO.P,SW10,2,2_2*%
%TO.N,Net-(D10-A)*%
X79000000Y-73899000D03*
%TD*%
D11*
%TO.P,D34,1,K_1*%
%TO.N,/ROW5*%
X253220000Y-109299000D03*
D12*
%TO.P,D34,2,A_2*%
%TO.N,Net-(D34-A)*%
X259020000Y-109299000D03*
%TD*%
D10*
%TO.P,SW39,1,1_1*%
%TO.N,/COL11*%
X270100000Y-123599000D03*
%TO.P,SW39,2,2_2*%
%TO.N,Net-(D39-A)*%
X275100000Y-125699000D03*
%TD*%
D11*
%TO.P,D38,1,K_1*%
%TO.N,/ROW5*%
X272200000Y-110019000D03*
D12*
%TO.P,D38,2,A_2*%
%TO.N,Net-(D38-A)*%
X278000000Y-110019000D03*
%TD*%
D10*
%TO.P,SW11,1,1_1*%
%TO.N,/COL3*%
X74000000Y-90799000D03*
%TO.P,SW11,2,2_2*%
%TO.N,Net-(D11-A)*%
X79000000Y-92899000D03*
%TD*%
%TO.P,SW30,1,1_1*%
%TO.N,/COL9*%
X232000000Y-78299000D03*
%TO.P,SW30,2,2_2*%
%TO.N,Net-(D30-A)*%
X237000000Y-80399000D03*
%TD*%
D11*
%TO.P,D36,1,K_1*%
%TO.N,/ROW7*%
X194600000Y-142000000D03*
D12*
%TO.P,D36,2,A_2*%
%TO.N,Net-(D36-A)*%
X200400000Y-142000000D03*
%TD*%
D11*
%TO.P,D8,1,K_1*%
%TO.N,/ROW1*%
X57100000Y-102899000D03*
D12*
%TO.P,D8,2,A_2*%
%TO.N,Net-(D8-A)*%
X62900000Y-102899000D03*
%TD*%
D10*
%TO.P,SW28,1,1_1*%
%TO.N,/COL8*%
X213000000Y-90599000D03*
%TO.P,SW28,2,2_2*%
%TO.N,Net-(D28-A)*%
X218000000Y-92699000D03*
%TD*%
D14*
%TO.P,U2,1,PA02_A0_D0_1*%
%TO.N,/INTERCON_R*%
X153045000Y-91999000D03*
D15*
X153880000Y-91999000D03*
D14*
%TO.P,U2,2,PA4_A1_D1_2*%
%TO.N,/COL6*%
X153045000Y-94539000D03*
D15*
X153880000Y-94539000D03*
D14*
%TO.P,U2,3,PA10_A2_D2_3*%
%TO.N,/COL7*%
X153045000Y-97079000D03*
D15*
X153880000Y-97079000D03*
D14*
%TO.P,U2,4,PA11_A3_D3_4*%
%TO.N,/COL8*%
X153045000Y-99619000D03*
D15*
X153880000Y-99619000D03*
D14*
%TO.P,U2,5,PA8_A4_D4_SDA_5*%
%TO.N,/COL9*%
X153045000Y-102159000D03*
D15*
X153880000Y-102159000D03*
D14*
%TO.P,U2,6,PA9_A5_D5_SCL_6*%
%TO.N,/COL10*%
X153045000Y-104699000D03*
D15*
X153880000Y-104699000D03*
D14*
%TO.P,U2,7,PB08_A6_D6_TX_7*%
%TO.N,/COL11*%
X153045000Y-107239000D03*
D15*
X153880000Y-107239000D03*
%TO.P,U2,8,PB09_A7_D7_RX_8*%
%TO.N,/ROW7*%
X169120000Y-107239000D03*
D16*
X169955000Y-107239000D03*
D15*
%TO.P,U2,9,PA7_A8_D8_SCK_9*%
%TO.N,/ROW6*%
X169120000Y-104699000D03*
D16*
X169955000Y-104699000D03*
D15*
%TO.P,U2,10,PA5_A9_D9_MISO_10*%
%TO.N,/ROW5*%
X169120000Y-102159000D03*
D16*
X169955000Y-102159000D03*
D15*
%TO.P,U2,11,PA6_A10_D10_MOSI_11*%
%TO.N,/ROW4*%
X169120000Y-99619000D03*
D16*
X169955000Y-99619000D03*
D15*
%TO.P,U2,12,3V3_12*%
%TO.N,unconnected-(U2-3V3-Pad12)_1*%
X169120000Y-97079000D03*
D16*
%TO.N,unconnected-(U2-3V3-Pad12)*%
X169955000Y-97079000D03*
D15*
%TO.P,U2,13,GND_13*%
%TO.N,/GND_R*%
X169120000Y-94539000D03*
D16*
X169955000Y-94539000D03*
D15*
%TO.P,U2,14,5V_14*%
%TO.N,/5V_R*%
X169120000Y-91999000D03*
D16*
X169955000Y-91999000D03*
%TD*%
D11*
%TO.P,D25,1,K_1*%
%TO.N,/ROW5*%
X196100000Y-99699000D03*
D12*
%TO.P,D25,2,A_2*%
%TO.N,Net-(D25-A)*%
X201900000Y-99699000D03*
%TD*%
D10*
%TO.P,SW38,1,1_1*%
%TO.N,/COL11*%
X270100000Y-104499000D03*
%TO.P,SW38,2,2_2*%
%TO.N,Net-(D38-A)*%
X275100000Y-106599000D03*
%TD*%
%TO.P,SW9,1,1_1*%
%TO.N,/COL2*%
X55000000Y-116299000D03*
%TO.P,SW9,2,2_2*%
%TO.N,Net-(D9-A)*%
X60000000Y-118399000D03*
%TD*%
%TO.P,SW40,1,1_1*%
%TO.N,/COL10*%
X173500000Y-139400000D03*
%TO.P,SW40,2,2_2*%
%TO.N,Net-(D40-A)*%
X178500000Y-141500000D03*
%TD*%
%TO.P,SW29,1,1_1*%
%TO.N,/COL8*%
X213000000Y-109599000D03*
%TO.P,SW29,2,2_2*%
%TO.N,Net-(D29-A)*%
X218000000Y-111699000D03*
%TD*%
D11*
%TO.P,D6,1,K_1*%
%TO.N,/ROW2*%
X38100000Y-127999000D03*
D12*
%TO.P,D6,2,A_2*%
%TO.N,Net-(D6-A)*%
X43900000Y-127999000D03*
%TD*%
D21*
%TO.P,P2,A1,GND_A1*%
%TO.N,/GND_R*%
X156855000Y-112300000D03*
%TO.P,P2,A4,VBUS_A4*%
%TO.N,/5V_R*%
X156855000Y-113100000D03*
D22*
%TO.P,P2,A5,CC1_A5*%
%TO.N,unconnected-(P2-CC1-PadA5)*%
X156855000Y-114250000D03*
%TO.P,P2,A6,D+_A6*%
%TO.N,/INTERCON_R*%
X156855000Y-115250000D03*
%TO.P,P2,A7,D-_A7*%
%TO.N,unconnected-(P2-D--PadA7)*%
X156855000Y-115750000D03*
%TO.P,P2,A8,SBU1_A8*%
%TO.N,unconnected-(P2-SBU1-PadA8)*%
X156855000Y-116750000D03*
D21*
%TO.P,P2,A9,VBUS_A9*%
%TO.N,/5V_R*%
X156855000Y-117900000D03*
%TO.P,P2,A12,GND_A12*%
%TO.N,/GND_R*%
X156855000Y-118700000D03*
%TO.P,P2,B1,GND_B1*%
X156855000Y-118700000D03*
%TO.P,P2,B4,VBUS_B4*%
%TO.N,/5V_R*%
X156855000Y-117900000D03*
D22*
%TO.P,P2,B5,CC2_B5*%
%TO.N,unconnected-(P2-CC2-PadB5)*%
X156855000Y-117250000D03*
%TO.P,P2,B6,D+_B6*%
%TO.N,/INTERCON_R*%
X156855000Y-116250000D03*
%TO.P,P2,B7,D-_B7*%
%TO.N,unconnected-(P2-D--PadB7)*%
X156855000Y-114750000D03*
%TO.P,P2,B8,SBU2_B8*%
%TO.N,unconnected-(P2-SBU2-PadB8)*%
X156855000Y-113750000D03*
D21*
%TO.P,P2,B9,VBUS_B9*%
%TO.N,/5V_R*%
X156855000Y-113100000D03*
%TO.P,P2,B12,GND_B12*%
%TO.N,/GND_R*%
X156855000Y-112300000D03*
D19*
%TO.P,P2,SH,SHIELD_SH*%
X156280000Y-111180000D03*
D20*
X152100000Y-111180000D03*
D19*
X156280000Y-119820000D03*
D20*
X152100000Y-119820000D03*
%TD*%
%TO.N,Net-(D50-A)*%
D23*
X137500000Y-135900000D02*
X140400000Y-138800000D01*
%TO.N,Net-(D1-A)*%
X24900000Y-90999000D02*
X21300000Y-87399000D01*
%TO.N,/ROW4*%
X172000000Y-97574000D02*
X172000000Y-89999000D01*
X254671000Y-91750000D02*
X271269000Y-91750000D01*
X221700000Y-83899000D02*
X234100000Y-83899000D01*
X190299000Y-86500000D02*
X196100000Y-80699000D01*
X210249000Y-82150000D02*
X215100000Y-77299000D01*
X215100000Y-77299000D02*
X221700000Y-83899000D01*
X177100000Y-84899000D02*
X178701000Y-86500000D01*
X178701000Y-86500000D02*
X190299000Y-86500000D01*
X240500000Y-90299000D02*
X253220000Y-90299000D01*
X197551000Y-82150000D02*
X210249000Y-82150000D01*
X234100000Y-83899000D02*
X240500000Y-90299000D01*
X169955000Y-99619000D02*
X172000000Y-97574000D01*
X253220000Y-90299000D02*
X254671000Y-91750000D01*
X196100000Y-80699000D02*
X197551000Y-82150000D01*
X172000000Y-89999000D02*
X177100000Y-84899000D01*
%TO.N,Net-(D30-A)*%
X239900000Y-83899000D02*
X237000000Y-80999000D01*
%TO.N,/ROW6*%
X253220000Y-128299000D02*
X254671000Y-129750000D01*
X234100000Y-121899000D02*
X240500000Y-128299000D01*
X176600000Y-122899000D02*
X178400000Y-124699000D01*
X197039892Y-118699000D02*
X198639892Y-120299000D01*
X210100000Y-120299000D02*
X215100000Y-115299000D01*
X240500000Y-128299000D02*
X253220000Y-128299000D01*
X170200000Y-104699000D02*
X177000000Y-111499000D01*
X254671000Y-129750000D02*
X271499000Y-129750000D01*
X177000000Y-111499000D02*
X177000000Y-122899000D01*
X190100000Y-124699000D02*
X196100000Y-118699000D01*
X178400000Y-124699000D02*
X190100000Y-124699000D01*
X221700000Y-121899000D02*
X234100000Y-121899000D01*
X215100000Y-115299000D02*
X221700000Y-121899000D01*
X198639892Y-120299000D02*
X210100000Y-120299000D01*
%TO.N,Net-(D39-A)*%
X277850000Y-129199000D02*
X275100000Y-126449000D01*
%TO.N,Net-(D7-A)*%
X62900000Y-83899000D02*
X60000000Y-80999000D01*
%TO.N,Net-(D12-A)*%
X81900000Y-115499000D02*
X79000000Y-112599000D01*
%TO.N,Net-(D24-A)*%
X199000000Y-77799000D02*
X199000000Y-76899000D01*
X201900000Y-80699000D02*
X199000000Y-77799000D01*
%TO.N,Net-(D32-A)*%
X239900000Y-121199000D02*
X237000000Y-118299000D01*
%TO.N,Net-(D5-A)*%
X43900000Y-108999000D02*
X41000000Y-106099000D01*
%TO.N,/ROW0*%
X76100000Y-77499000D02*
X68249000Y-85350000D01*
X121201000Y-92000000D02*
X123478750Y-92000000D01*
X58551000Y-85350000D02*
X57100000Y-83899000D01*
X95100000Y-80499000D02*
X79100000Y-80499000D01*
X35599000Y-92500000D02*
X20601000Y-92500000D01*
X57100000Y-83899000D02*
X49549000Y-91450000D01*
X99500000Y-84899000D02*
X95100000Y-80499000D01*
X49549000Y-91450000D02*
X39551000Y-91450000D01*
X68249000Y-85350000D02*
X58551000Y-85350000D01*
X20601000Y-92500000D02*
X19100000Y-90999000D01*
X79100000Y-80499000D02*
X76100000Y-77499000D01*
X123478750Y-92000000D02*
X126066250Y-94587500D01*
X114100000Y-84899000D02*
X99500000Y-84899000D01*
X114100000Y-84899000D02*
X121201000Y-92000000D01*
X39551000Y-91450000D02*
X38100000Y-89999000D01*
X38100000Y-89999000D02*
X35599000Y-92500000D01*
%TO.N,Net-(D26-A)*%
X201900000Y-118699000D02*
X199000000Y-115799000D01*
X199000000Y-115799000D02*
X199000000Y-114899000D01*
%TO.N,Net-(D8-A)*%
X62900000Y-102899000D02*
X60000000Y-99999000D01*
%TO.N,Net-(D4-A)*%
X43900000Y-89999000D02*
X41000000Y-87099000D01*
%TO.N,Net-(D33-A)*%
X259020000Y-90299000D02*
X256120000Y-87399000D01*
X256120000Y-87399000D02*
X256120000Y-86499000D01*
%TO.N,Net-(D13-A)*%
X100900000Y-80499000D02*
X98000000Y-77599000D01*
%TO.N,Net-(D35-A)*%
X259020000Y-128299000D02*
X256120000Y-125399000D01*
X256120000Y-125399000D02*
X256120000Y-124499000D01*
%TO.N,/ROW3*%
X97100000Y-142000000D02*
X100200000Y-145100000D01*
X134600000Y-108927500D02*
X134600000Y-139500000D01*
X134600000Y-139500000D02*
X131500000Y-139500000D01*
X131500000Y-139500000D02*
X124157231Y-146842769D01*
X100200000Y-145100000D02*
X115600000Y-145100000D01*
X127880000Y-102207500D02*
X134600000Y-108927500D01*
X117358172Y-146858172D02*
X115600000Y-145100000D01*
X124157231Y-146842769D02*
X117358172Y-146858172D01*
%TO.N,/ROW1*%
X114100000Y-103899000D02*
X99500000Y-103899000D01*
X76100000Y-96499000D02*
X68249000Y-104350000D01*
X79100000Y-99499000D02*
X76100000Y-96499000D01*
X39551000Y-110450000D02*
X38100000Y-108999000D01*
X127045000Y-97127500D02*
X117000000Y-97127500D01*
X95100000Y-99499000D02*
X79100000Y-99499000D01*
X57100000Y-102899000D02*
X49549000Y-110450000D01*
X99500000Y-103899000D02*
X95100000Y-99499000D01*
X68249000Y-104350000D02*
X58551000Y-104350000D01*
X114100000Y-100027500D02*
X114100000Y-103899000D01*
X38100000Y-108999000D02*
X35599000Y-111500000D01*
X35599000Y-111500000D02*
X20601000Y-111500000D01*
X117000000Y-97127500D02*
X114100000Y-100027500D01*
X20601000Y-111500000D02*
X19100000Y-109999000D01*
X58551000Y-104350000D02*
X57100000Y-102899000D01*
X49549000Y-110450000D02*
X39551000Y-110450000D01*
%TO.N,Net-(D18-A)*%
X119900000Y-103899000D02*
X117000000Y-100999000D01*
%TO.N,Net-(D21-A)*%
X182900000Y-84899000D02*
X180000000Y-81999000D01*
%TO.N,Net-(D51-A)*%
X159500000Y-136100000D02*
X162400000Y-139000000D01*
%TO.N,Net-(D27-A)*%
X220900000Y-77299000D02*
X218000000Y-74399000D01*
%TO.N,/ROW2*%
X38100000Y-127999000D02*
X35599000Y-130500000D01*
X49549000Y-129450000D02*
X39551000Y-129450000D01*
X122997056Y-103715444D02*
X122997056Y-111304888D01*
X122997056Y-111304888D02*
X114100000Y-120201944D01*
X99600000Y-122999000D02*
X95100000Y-118499000D01*
X114100000Y-122999000D02*
X114100000Y-120201944D01*
X57100000Y-121899000D02*
X49549000Y-129450000D01*
X114100000Y-122999000D02*
X99600000Y-122999000D01*
X68249000Y-123350000D02*
X58551000Y-123350000D01*
X35599000Y-130500000D02*
X20601000Y-130500000D01*
X79100000Y-118499000D02*
X76100000Y-115499000D01*
X127045000Y-99667500D02*
X122997056Y-103715444D01*
X95100000Y-118499000D02*
X79100000Y-118499000D01*
X58551000Y-123350000D02*
X57100000Y-121899000D01*
X76100000Y-115499000D02*
X68249000Y-123350000D01*
X39551000Y-129450000D02*
X38100000Y-127999000D01*
X20601000Y-130500000D02*
X19100000Y-128999000D01*
%TO.N,Net-(D9-A)*%
X62900000Y-121899000D02*
X60000000Y-118999000D01*
%TO.N,Net-(D37-A)*%
X277900000Y-90919000D02*
X275120000Y-88139000D01*
%TO.N,Net-(D15-A)*%
X100900000Y-118499000D02*
X98000000Y-115599000D01*
%TO.N,Net-(D11-A)*%
X81900000Y-96499000D02*
X79000000Y-93599000D01*
%TO.N,/ROW7*%
X177050000Y-145450000D02*
X178100000Y-146500000D01*
X169000000Y-124500000D02*
X156600000Y-136900000D01*
X169000000Y-108194000D02*
X169000000Y-124500000D01*
X156600000Y-139500000D02*
X159250000Y-139500000D01*
X169955000Y-107239000D02*
X169000000Y-108194000D01*
X164750000Y-145000000D02*
X175600000Y-145000000D01*
X156600000Y-136900000D02*
X156600000Y-139500000D01*
X178100000Y-146500000D02*
X190100000Y-146500000D01*
X159250000Y-139500000D02*
X164750000Y-145000000D01*
X190100000Y-146500000D02*
X194600000Y-142000000D01*
%TO.N,Net-(D40-A)*%
X181400000Y-145000000D02*
X178500000Y-142100000D01*
%TO.N,Net-(D31-A)*%
X239900000Y-102899000D02*
X237000000Y-99999000D01*
%TO.N,/ROW5*%
X221700000Y-102899000D02*
X234100000Y-102899000D01*
X253220000Y-109299000D02*
X254671000Y-110750000D01*
X177100000Y-103899000D02*
X178900000Y-103899000D01*
X169955000Y-102159000D02*
X175360000Y-102159000D01*
X190400000Y-105399000D02*
X196100000Y-99699000D01*
X180400000Y-105399000D02*
X190400000Y-105399000D01*
X254671000Y-110750000D02*
X271469000Y-110750000D01*
X197901000Y-101500000D02*
X209899000Y-101500000D01*
X175360000Y-102159000D02*
X177100000Y-103899000D01*
X215100000Y-96299000D02*
X221700000Y-102899000D01*
X178900000Y-103899000D02*
X180400000Y-105399000D01*
X234100000Y-102899000D02*
X240500000Y-109299000D01*
X196100000Y-99699000D02*
X197901000Y-101500000D01*
X240500000Y-109299000D02*
X253220000Y-109299000D01*
X209899000Y-101500000D02*
X215100000Y-96299000D01*
%TO.N,Net-(D22-A)*%
X182900000Y-103899000D02*
X180000000Y-100999000D01*
%TO.N,/INTERCON_L*%
X142070000Y-121430000D02*
X142070000Y-117067590D01*
X140752410Y-114750000D02*
X140145000Y-114750000D01*
X127880000Y-92047500D02*
X135000000Y-99167500D01*
X142070000Y-117067590D02*
X142070000Y-116067590D01*
X135000000Y-116500000D02*
X140500000Y-122000000D01*
X142070000Y-116067590D02*
X140752410Y-114750000D01*
X140500000Y-122000000D02*
X141500000Y-122000000D01*
X140752410Y-115750000D02*
X140145000Y-115750000D01*
X142070000Y-117067590D02*
X140752410Y-115750000D01*
X135000000Y-99167500D02*
X135000000Y-116500000D01*
X141500000Y-122000000D02*
X142070000Y-121430000D01*
%TO.N,/3V3_L*%
X143500000Y-122000000D02*
X143500000Y-110834698D01*
X142058000Y-109392697D02*
X142058000Y-98189500D01*
X142058000Y-109392697D02*
X143500000Y-110834698D01*
X142058000Y-98189500D02*
X143120000Y-97127500D01*
%TO.N,Net-(D28-A)*%
X220900000Y-96299000D02*
X218000000Y-93399000D01*
%TO.N,Net-(D14-A)*%
X100900000Y-99499000D02*
X98000000Y-96599000D01*
%TO.N,Net-(D16-A)*%
X102900000Y-142000000D02*
X99500000Y-138600000D01*
%TO.N,Net-(D19-A)*%
X119900000Y-122999000D02*
X117000000Y-120099000D01*
%TO.N,Net-(D34-A)*%
X256120000Y-106399000D02*
X256120000Y-105499000D01*
X259020000Y-109299000D02*
X256120000Y-106399000D01*
%TO.N,Net-(D6-A)*%
X43900000Y-127999000D02*
X41000000Y-125099000D01*
%TO.N,/GND_L*%
X140145000Y-119245000D02*
X140720000Y-119820000D01*
X140145000Y-118700000D02*
X140145000Y-119245000D01*
X140145000Y-112300000D02*
X140145000Y-111755000D01*
X140145000Y-111755000D02*
X140720000Y-111180000D01*
%TO.N,/5V_L*%
D24*
X139120000Y-113455458D02*
X139120000Y-117544542D01*
X139517316Y-113100000D02*
X140145000Y-113100000D01*
X139776497Y-95391003D02*
X143120000Y-92047500D01*
X139475458Y-117900000D02*
X140145000Y-117900000D01*
X139120000Y-110656497D02*
X139120000Y-112702684D01*
X139776497Y-110000000D02*
X139120000Y-110656497D01*
X139776497Y-110000000D02*
X139776497Y-95391003D01*
X139120000Y-112702684D02*
X139517316Y-113100000D01*
X139475458Y-113100000D02*
X139120000Y-113455458D01*
X139120000Y-117544542D02*
X139475458Y-117900000D01*
X140145000Y-113100000D02*
X139475458Y-113100000D01*
%TO.N,Net-(D20-A)*%
D23*
X121400000Y-145100000D02*
X118500000Y-142200000D01*
%TO.N,Net-(D2-A)*%
X24900000Y-109999000D02*
X22000000Y-107099000D01*
%TO.N,Net-(D23-A)*%
X182800000Y-122899000D02*
X180000000Y-120099000D01*
%TO.N,Net-(D17-A)*%
X119900000Y-84899000D02*
X117000000Y-81999000D01*
%TO.N,Net-(D10-A)*%
X81900000Y-77499000D02*
X79000000Y-74599000D01*
%TO.N,Net-(D25-A)*%
X199000000Y-96799000D02*
X199000000Y-95899000D01*
X201900000Y-99699000D02*
X199000000Y-96799000D01*
%TO.N,Net-(D29-A)*%
X220900000Y-115299000D02*
X218000000Y-112399000D01*
%TO.N,Net-(D3-A)*%
X24900000Y-128999000D02*
X22000000Y-126099000D01*
%TO.N,Net-(D36-A)*%
X200400000Y-142000000D02*
X197500000Y-139100000D01*
%TO.N,Net-(D38-A)*%
X278000000Y-110019000D02*
X275100000Y-107119000D01*
%TO.N,/INTERCON_R*%
X155980000Y-114375000D02*
X154000000Y-112395000D01*
X155980000Y-115982410D02*
X156247590Y-116250000D01*
X154000000Y-112395000D02*
X154000000Y-111225406D01*
X156197590Y-115200000D02*
X155980000Y-114982410D01*
X150900000Y-94144000D02*
X153045000Y-91999000D01*
X150900000Y-108125406D02*
X150900000Y-94144000D01*
X156247590Y-116250000D02*
X156855000Y-116250000D01*
X155980000Y-114375000D02*
X155980000Y-114982410D01*
X155980000Y-114982410D02*
X155980000Y-115982410D01*
X154000000Y-111225406D02*
X150900000Y-108125406D01*
X156805000Y-115200000D02*
X156197590Y-115200000D01*
%TO.N,/GND_R*%
X156855000Y-119245000D02*
X156280000Y-119820000D01*
X156855000Y-111755000D02*
X156280000Y-111180000D01*
X156855000Y-112300000D02*
X156855000Y-111755000D01*
X156855000Y-118700000D02*
X156855000Y-119245000D01*
%TO.N,/5V_R*%
D24*
X156855000Y-113100000D02*
X157524542Y-113100000D01*
X158000000Y-117424542D02*
X157524542Y-117900000D01*
X158000000Y-113575458D02*
X158000000Y-117424542D01*
X157524542Y-117900000D02*
X156855000Y-117900000D01*
X157524542Y-113100000D02*
X158000000Y-113575458D01*
X158000000Y-113575458D02*
X158000000Y-103119000D01*
X158000000Y-103119000D02*
X169120000Y-91999000D01*
%TD*%
M02*
