%TF.GenerationSoftware,KiCad,Pcbnew,10.0.3*%
%TF.CreationDate,2026-06-26T17:37:38-07:00*%
%TF.ProjectId,NordBoard,4e6f7264-426f-4617-9264-2e6b69636164,rev?*%
%TF.SameCoordinates,Original*%
%TF.FileFunction,Paste,Top*%
%TF.FilePolarity,Positive*%
%FSLAX46Y46*%
G04 Gerber Fmt 4.6, Leading zero omitted, Abs format (unit mm)*
G04 Created by KiCad (PCBNEW 10.0.3) date 2026-06-26 17:37:38*
%MOMM*%
%LPD*%
G01*
G04 APERTURE LIST*
G04 Aperture macros list*
%AMRoundRect*
0 Rectangle with rounded corners*
0 $1 Rounding radius*
0 $2 $3 $4 $5 $6 $7 $8 $9 X,Y pos of 4 corners*
0 Add a 4 corners polygon primitive as box body*
4,1,4,$2,$3,$4,$5,$6,$7,$8,$9,$2,$3,0*
0 Add four circle primitives for the rounded corners*
1,1,$1+$1,$2,$3*
1,1,$1+$1,$4,$5*
1,1,$1+$1,$6,$7*
1,1,$1+$1,$8,$9*
0 Add four rect primitives between the rounded corners*
20,1,$1+$1,$2,$3,$4,$5,0*
20,1,$1+$1,$4,$5,$6,$7,0*
20,1,$1+$1,$6,$7,$8,$9,0*
20,1,$1+$1,$8,$9,$2,$3,0*%
%AMOutline4P*
0 Free polygon, 4 corners , with rotation*
0 The origin of the aperture is its center*
0 number of corners: always 4*
0 $1 to $8 corner X, Y*
0 $9 Rotation angle, in degrees counterclockwise*
0 create outline with 4 corners*
4,1,4,$1,$2,$3,$4,$5,$6,$7,$8,$1,$2,$9*%
G04 Aperture macros list end*
%ADD10Outline4P,-1.800000X-1.150000X1.800000X-0.550000X1.800000X0.550000X-1.800000X1.150000X0.000000*%
%ADD11Outline4P,-1.800000X-1.150000X1.800000X-0.550000X1.800000X0.550000X-1.800000X1.150000X180.000000*%
%ADD12RoundRect,0.250000X-0.350000X-0.450000X0.350000X-0.450000X0.350000X0.450000X-0.350000X0.450000X0*%
%ADD13RoundRect,0.150000X0.425000X-0.150000X0.425000X0.150000X-0.425000X0.150000X-0.425000X-0.150000X0*%
%ADD14RoundRect,0.075000X0.500000X-0.075000X0.500000X0.075000X-0.500000X0.075000X-0.500000X-0.075000X0*%
%ADD15O,2.100000X1.000000*%
%ADD16O,1.800000X1.000000*%
%ADD17RoundRect,0.150000X-0.425000X0.150000X-0.425000X-0.150000X0.425000X-0.150000X0.425000X0.150000X0*%
%ADD18RoundRect,0.075000X-0.500000X0.075000X-0.500000X-0.075000X0.500000X-0.075000X0.500000X0.075000X0*%
G04 APERTURE END LIST*
D10*
%TO.C,D30*%
X234100000Y-83899000D03*
D11*
X239900000Y-83899000D03*
%TD*%
D10*
%TO.C,D39*%
X272050000Y-129199000D03*
D11*
X277850000Y-129199000D03*
%TD*%
D10*
%TO.C,D24*%
X196100000Y-80699000D03*
D11*
X201900000Y-80699000D03*
%TD*%
D10*
%TO.C,D1*%
X19100000Y-90999000D03*
D11*
X24900000Y-90999000D03*
%TD*%
D10*
%TO.C,D4*%
X38100000Y-89999000D03*
D11*
X43900000Y-89999000D03*
%TD*%
D10*
%TO.C,D33*%
X253220000Y-90299000D03*
D11*
X259020000Y-90299000D03*
%TD*%
D10*
%TO.C,D13*%
X95100000Y-80499000D03*
D11*
X100900000Y-80499000D03*
%TD*%
D10*
%TO.C,D50*%
X134600000Y-139500000D03*
D11*
X140400000Y-139500000D03*
%TD*%
D10*
%TO.C,D18*%
X114100000Y-103899000D03*
D11*
X119900000Y-103899000D03*
%TD*%
D10*
%TO.C,D21*%
X177100000Y-84899000D03*
D11*
X182900000Y-84899000D03*
%TD*%
D10*
%TO.C,D32*%
X234100000Y-121899000D03*
D11*
X239900000Y-121899000D03*
%TD*%
D10*
%TO.C,D27*%
X215100000Y-77299000D03*
D11*
X220900000Y-77299000D03*
%TD*%
D10*
%TO.C,D9*%
X57100000Y-121899000D03*
D11*
X62900000Y-121899000D03*
%TD*%
D10*
%TO.C,D37*%
X272100000Y-90919000D03*
D11*
X277900000Y-90919000D03*
%TD*%
D10*
%TO.C,D11*%
X76100000Y-96499000D03*
D11*
X81900000Y-96499000D03*
%TD*%
D10*
%TO.C,D40*%
X175600000Y-145000000D03*
D11*
X181400000Y-145000000D03*
%TD*%
D10*
%TO.C,D7*%
X57100000Y-83899000D03*
D11*
X62900000Y-83899000D03*
%TD*%
D10*
%TO.C,D22*%
X177100000Y-103899000D03*
D11*
X182900000Y-103899000D03*
%TD*%
D10*
%TO.C,D35*%
X253220000Y-128299000D03*
D11*
X259020000Y-128299000D03*
%TD*%
D12*
%TO.C,R1*%
X141500000Y-122000000D03*
X143500000Y-122000000D03*
%TD*%
D10*
%TO.C,D12*%
X76100000Y-115499000D03*
D11*
X81900000Y-115499000D03*
%TD*%
D10*
%TO.C,D28*%
X215100000Y-96299000D03*
D11*
X220900000Y-96299000D03*
%TD*%
D10*
%TO.C,D14*%
X95100000Y-99499000D03*
D11*
X100900000Y-99499000D03*
%TD*%
D10*
%TO.C,D19*%
X114100000Y-122999000D03*
D11*
X119900000Y-122999000D03*
%TD*%
D10*
%TO.C,D31*%
X234100000Y-102899000D03*
D11*
X239900000Y-102899000D03*
%TD*%
D10*
%TO.C,D26*%
X196100000Y-118699000D03*
D11*
X201900000Y-118699000D03*
%TD*%
D10*
%TO.C,D15*%
X95100000Y-118499000D03*
D11*
X100900000Y-118499000D03*
%TD*%
D10*
%TO.C,D23*%
X177000000Y-122899000D03*
D11*
X182800000Y-122899000D03*
%TD*%
D10*
%TO.C,D16*%
X97100000Y-142000000D03*
D11*
X102900000Y-142000000D03*
%TD*%
D10*
%TO.C,D10*%
X76100000Y-77499000D03*
D11*
X81900000Y-77499000D03*
%TD*%
D10*
%TO.C,D2*%
X19100000Y-109999000D03*
D11*
X24900000Y-109999000D03*
%TD*%
D13*
%TO.C,P1*%
X140145000Y-118700000D03*
X140145000Y-117900000D03*
D14*
X140145000Y-116750000D03*
X140145000Y-115750000D03*
X140145000Y-115250000D03*
X140145000Y-114250000D03*
D13*
X140145000Y-113100000D03*
X140145000Y-112300000D03*
X140145000Y-112300000D03*
X140145000Y-113100000D03*
D14*
X140145000Y-113750000D03*
X140145000Y-114750000D03*
X140145000Y-116250000D03*
X140145000Y-117250000D03*
D13*
X140145000Y-117900000D03*
X140145000Y-118700000D03*
D15*
X140720000Y-119820000D03*
D16*
X144900000Y-119820000D03*
D15*
X140720000Y-111180000D03*
D16*
X144900000Y-111180000D03*
%TD*%
D10*
%TO.C,D17*%
X114100000Y-84899000D03*
D11*
X119900000Y-84899000D03*
%TD*%
D10*
%TO.C,D5*%
X38100000Y-108999000D03*
D11*
X43900000Y-108999000D03*
%TD*%
D10*
%TO.C,D29*%
X215100000Y-115299000D03*
D11*
X220900000Y-115299000D03*
%TD*%
D10*
%TO.C,D51*%
X156600000Y-139500000D03*
D11*
X162400000Y-139500000D03*
%TD*%
D10*
%TO.C,D20*%
X115600000Y-145100000D03*
D11*
X121400000Y-145100000D03*
%TD*%
D10*
%TO.C,D3*%
X19100000Y-128999000D03*
D11*
X24900000Y-128999000D03*
%TD*%
D10*
%TO.C,D34*%
X253220000Y-109299000D03*
D11*
X259020000Y-109299000D03*
%TD*%
D10*
%TO.C,D38*%
X272200000Y-110019000D03*
D11*
X278000000Y-110019000D03*
%TD*%
D10*
%TO.C,D36*%
X194600000Y-142000000D03*
D11*
X200400000Y-142000000D03*
%TD*%
D10*
%TO.C,D8*%
X57100000Y-102899000D03*
D11*
X62900000Y-102899000D03*
%TD*%
D10*
%TO.C,D25*%
X196100000Y-99699000D03*
D11*
X201900000Y-99699000D03*
%TD*%
D10*
%TO.C,D6*%
X38100000Y-127999000D03*
D11*
X43900000Y-127999000D03*
%TD*%
D17*
%TO.C,P2*%
X156855000Y-112300000D03*
X156855000Y-113100000D03*
D18*
X156855000Y-114250000D03*
X156855000Y-115250000D03*
X156855000Y-115750000D03*
X156855000Y-116750000D03*
D17*
X156855000Y-117900000D03*
X156855000Y-118700000D03*
X156855000Y-118700000D03*
X156855000Y-117900000D03*
D18*
X156855000Y-117250000D03*
X156855000Y-116250000D03*
X156855000Y-114750000D03*
X156855000Y-113750000D03*
D17*
X156855000Y-113100000D03*
X156855000Y-112300000D03*
D15*
X156280000Y-111180000D03*
D16*
X152100000Y-111180000D03*
D15*
X156280000Y-119820000D03*
D16*
X152100000Y-119820000D03*
%TD*%
M02*
