%TF.GenerationSoftware,KiCad,Pcbnew,10.0.3*%
%TF.CreationDate,2026-06-26T17:37:38-07:00*%
%TF.ProjectId,NordBoard,4e6f7264-426f-4617-9264-2e6b69636164,rev?*%
%TF.SameCoordinates,Original*%
%TF.FileFunction,Profile,NP*%
%FSLAX46Y46*%
G04 Gerber Fmt 4.6, Leading zero omitted, Abs format (unit mm)*
G04 Created by KiCad (PCBNEW 10.0.3) date 2026-06-26 17:37:38*
%MOMM*%
%LPD*%
G01*
G04 APERTURE LIST*
%TA.AperFunction,Profile*%
%ADD10C,0.050000*%
%TD*%
G04 APERTURE END LIST*
D10*
X12000000Y-71499000D02*
X12000000Y-131499000D01*
X12000000Y-131499000D02*
X72000000Y-131499000D01*
X69500000Y-57999000D02*
X12000000Y-71499000D01*
X72000000Y-131499000D02*
X98324656Y-147501294D01*
X89000000Y-57999000D02*
X69500000Y-57999000D01*
X89000000Y-60999000D02*
X89000000Y-57999000D01*
X98324656Y-147501294D02*
X147450000Y-147390000D01*
X108000000Y-60999000D02*
X89000000Y-60999000D01*
X108000000Y-65499000D02*
X108000000Y-60999000D01*
X127000000Y-65499000D02*
X108000000Y-65499000D01*
X127000000Y-87499000D02*
X127000000Y-65499000D01*
X147450000Y-87500000D02*
X127000000Y-87499000D01*
X147450000Y-93500000D02*
X147450000Y-100850000D01*
X147450000Y-106850000D02*
X147500000Y-120389000D01*
X147450000Y-128390000D02*
X147500000Y-120389000D01*
X147450000Y-134390000D02*
X147450000Y-141390000D01*
X149450000Y-87500000D02*
X170000000Y-87499000D01*
X149450000Y-100850000D02*
X149450000Y-93500000D01*
X149450000Y-128390000D02*
X149500000Y-114389000D01*
X149450000Y-141390000D02*
X149450000Y-134390000D01*
X149450000Y-147390000D02*
X199500248Y-147501500D01*
X149500000Y-114389000D02*
X149450000Y-106850000D01*
X170000000Y-65499000D02*
X189000000Y-65499000D01*
X170000000Y-87499000D02*
X170000000Y-65499000D01*
X189000000Y-60999000D02*
X208000000Y-60999000D01*
X189000000Y-65499000D02*
X189000000Y-60999000D01*
X199500000Y-147501651D02*
X225000000Y-132000000D01*
X208000000Y-57999000D02*
X227500000Y-57999000D01*
X208000000Y-60999000D02*
X208000000Y-57999000D01*
X227500000Y-57999000D02*
X285000000Y-71499000D01*
X265000000Y-131999000D02*
X225000000Y-132000000D01*
X285000000Y-71499000D02*
X285000000Y-131999000D01*
X285000000Y-131999000D02*
X265000000Y-131999000D01*
%TO.C,B1*%
X147450000Y-93500000D02*
G75*
G02*
X149450000Y-93500000I1000000J0D01*
G01*
X149450000Y-87500000D02*
G75*
G02*
X147450000Y-87500000I-1000000J0D01*
G01*
%TO.C,B3*%
X147450000Y-147390000D02*
G75*
G02*
X149450000Y-147390000I1000000J0D01*
G01*
X149450000Y-141390000D02*
G75*
G02*
X147450000Y-141390000I-1000000J0D01*
G01*
%TO.C,B2*%
X147450000Y-106850000D02*
G75*
G02*
X149450000Y-106850000I1000000J0D01*
G01*
X149450000Y-100850000D02*
G75*
G02*
X147450000Y-100850000I-1000000J0D01*
G01*
%TO.C,B4*%
X147450000Y-134390000D02*
G75*
G02*
X149450000Y-134390000I1000000J0D01*
G01*
X149450000Y-128390000D02*
G75*
G02*
X147450000Y-128390000I-1000000J0D01*
G01*
%TD*%
M02*
