%TF.GenerationSoftware,KiCad,Pcbnew,9.0.7*%
%TF.CreationDate,2026-02-18T21:27:09-08:00*%
%TF.ProjectId,NordBoard,4e6f7264-426f-4617-9264-2e6b69636164,rev?*%
%TF.SameCoordinates,Original*%
%TF.FileFunction,Soldermask,Bot*%
%TF.FilePolarity,Negative*%
%FSLAX46Y46*%
G04 Gerber Fmt 4.6, Leading zero omitted, Abs format (unit mm)*
G04 Created by KiCad (PCBNEW 9.0.7) date 2026-02-18 21:27:09*
%MOMM*%
%LPD*%
G01*
G04 APERTURE LIST*
%ADD10C,1.700000*%
%ADD11C,3.400000*%
%ADD12C,2.000000*%
%ADD13C,0.500000*%
%ADD14C,2.200000*%
%ADD15C,1.524000*%
G04 APERTURE END LIST*
D10*
%TO.C,SW1*%
X16500000Y-81499000D03*
D11*
X22000000Y-81499000D03*
D10*
X27500000Y-81499000D03*
D12*
X17000000Y-85299000D03*
X22000000Y-87399000D03*
%TD*%
D10*
%TO.C,SW7*%
X54500000Y-74499000D03*
D11*
X60000000Y-74499000D03*
D10*
X65500000Y-74499000D03*
D12*
X55000000Y-78299000D03*
X60000000Y-80399000D03*
%TD*%
D10*
%TO.C,SW12*%
X73500000Y-105999000D03*
D11*
X79000000Y-105999000D03*
D10*
X84500000Y-105999000D03*
D12*
X74000000Y-109799000D03*
X79000000Y-111899000D03*
%TD*%
D10*
%TO.C,SW32*%
X231500000Y-112399000D03*
D11*
X237000000Y-112399000D03*
D10*
X242500000Y-112399000D03*
D12*
X232000000Y-116199000D03*
X237000000Y-118299000D03*
%TD*%
D10*
%TO.C,SW5*%
X35500000Y-99599000D03*
D11*
X41000000Y-99599000D03*
D10*
X46500000Y-99599000D03*
D12*
X36000000Y-103399000D03*
X41000000Y-105499000D03*
%TD*%
D13*
%TO.C,B1*%
X147450000Y-105849000D03*
X147450000Y-105109000D03*
X147450000Y-104369000D03*
X147450000Y-103629000D03*
X147450000Y-102889000D03*
X147450000Y-102149000D03*
%TD*%
D10*
%TO.C,SW26*%
X193500000Y-108999000D03*
D11*
X199000000Y-108999000D03*
D10*
X204500000Y-108999000D03*
D12*
X194000000Y-112799000D03*
X199000000Y-114899000D03*
%TD*%
D13*
%TO.C,B2*%
X147450000Y-92349000D03*
X147450000Y-91609000D03*
X147450000Y-90869000D03*
X147450000Y-90129000D03*
X147450000Y-89389000D03*
X147450000Y-88649000D03*
%TD*%
D10*
%TO.C,SW8*%
X54500000Y-93499000D03*
D11*
X60000000Y-93499000D03*
D10*
X65500000Y-93499000D03*
D12*
X55000000Y-97299000D03*
X60000000Y-99399000D03*
%TD*%
D14*
%TO.C,H3*%
X46500000Y-66999000D03*
%TD*%
D10*
%TO.C,SW13*%
X92500000Y-71099000D03*
D11*
X98000000Y-71099000D03*
D10*
X103500000Y-71099000D03*
D12*
X93000000Y-74899000D03*
X98000000Y-76999000D03*
%TD*%
D13*
%TO.C,B3*%
X147450000Y-119239000D03*
X147450000Y-118499000D03*
X147450000Y-117759000D03*
X147450000Y-117019000D03*
X147450000Y-116279000D03*
X147450000Y-115539000D03*
%TD*%
D10*
%TO.C,SW35*%
X250620000Y-118599000D03*
D11*
X256120000Y-118599000D03*
D10*
X261620000Y-118599000D03*
D12*
X251120000Y-122399000D03*
X256120000Y-124499000D03*
%TD*%
D13*
%TO.C,B5*%
X147450000Y-146339000D03*
X147450000Y-145599000D03*
X147450000Y-144859000D03*
X147450000Y-144119000D03*
X147450000Y-143379000D03*
X147450000Y-142639000D03*
%TD*%
D14*
%TO.C,H1*%
X141000000Y-118499000D03*
%TD*%
D10*
%TO.C,SW15*%
X92500000Y-109099000D03*
D11*
X98000000Y-109099000D03*
D10*
X103500000Y-109099000D03*
D12*
X93000000Y-112899000D03*
X98000000Y-114999000D03*
%TD*%
D14*
%TO.C,H5*%
X197000000Y-133499000D03*
%TD*%
D10*
%TO.C,SW27*%
X212500000Y-67999000D03*
D11*
X218000000Y-67999000D03*
D10*
X223500000Y-67999000D03*
D12*
X213000000Y-71799000D03*
X218000000Y-73899000D03*
%TD*%
D10*
%TO.C,SW31*%
X231500000Y-93399000D03*
D11*
X237000000Y-93399000D03*
D10*
X242500000Y-93399000D03*
D12*
X232000000Y-97199000D03*
X237000000Y-99299000D03*
%TD*%
D10*
%TO.C,SW16*%
X111500000Y-133499000D03*
D11*
X117000000Y-133499000D03*
D10*
X122500000Y-133499000D03*
D12*
X112000000Y-137299000D03*
X117000000Y-139399000D03*
%TD*%
D10*
%TO.C,SW34*%
X250620000Y-99599000D03*
D11*
X256120000Y-99599000D03*
D10*
X261620000Y-99599000D03*
D12*
X251120000Y-103399000D03*
X256120000Y-105499000D03*
%TD*%
D10*
%TO.C,SW21*%
X174500000Y-75499000D03*
D11*
X180000000Y-75499000D03*
D10*
X185500000Y-75499000D03*
D12*
X175000000Y-79299000D03*
X180000000Y-81399000D03*
%TD*%
D10*
%TO.C,SW22*%
X174500000Y-94499000D03*
D11*
X180000000Y-94499000D03*
D10*
X185500000Y-94499000D03*
D12*
X175000000Y-98299000D03*
X180000000Y-100399000D03*
%TD*%
D14*
%TO.C,H4*%
X158000000Y-118499000D03*
%TD*%
D10*
%TO.C,SW6*%
X35500000Y-118699000D03*
D11*
X41000000Y-118699000D03*
D10*
X46500000Y-118699000D03*
D12*
X36000000Y-122499000D03*
X41000000Y-124599000D03*
%TD*%
D15*
%TO.C,U1*%
X127880000Y-92047500D03*
X127880000Y-94587500D03*
X127880000Y-97127500D03*
X127880000Y-99667500D03*
X127880000Y-102207500D03*
X127880000Y-104747500D03*
X127880000Y-107287500D03*
X143120000Y-107287500D03*
X143120000Y-104747500D03*
X143120000Y-102207500D03*
X143120000Y-99667500D03*
X143120000Y-97127500D03*
X143120000Y-94587500D03*
X143120000Y-92047500D03*
%TD*%
D10*
%TO.C,SW24*%
X193500000Y-70999000D03*
D11*
X199000000Y-70999000D03*
D10*
X204500000Y-70999000D03*
D12*
X194000000Y-74799000D03*
X199000000Y-76899000D03*
%TD*%
D10*
%TO.C,SW18*%
X111500000Y-94499000D03*
D11*
X117000000Y-94499000D03*
D10*
X122500000Y-94499000D03*
D12*
X112000000Y-98299000D03*
X117000000Y-100399000D03*
%TD*%
D10*
%TO.C,SW14*%
X92500000Y-90099000D03*
D11*
X98000000Y-90099000D03*
D10*
X103500000Y-90099000D03*
D12*
X93000000Y-93899000D03*
X98000000Y-95999000D03*
%TD*%
D10*
%TO.C,SW37*%
X269620000Y-81599000D03*
D11*
X275120000Y-81599000D03*
D10*
X280620000Y-81599000D03*
D12*
X270120000Y-85399000D03*
X275120000Y-87499000D03*
%TD*%
D13*
%TO.C,B4*%
X147450000Y-132999000D03*
X147450000Y-132259000D03*
X147450000Y-131519000D03*
X147450000Y-130779000D03*
X147450000Y-130039000D03*
X147450000Y-129299000D03*
%TD*%
D10*
%TO.C,SW20*%
X131500000Y-135499000D03*
D11*
X137000000Y-135499000D03*
D10*
X142500000Y-135499000D03*
D12*
X132000000Y-139299000D03*
X137000000Y-141399000D03*
%TD*%
D10*
%TO.C,SW2*%
X16500000Y-100499000D03*
D11*
X22000000Y-100499000D03*
D10*
X27500000Y-100499000D03*
D12*
X17000000Y-104299000D03*
X22000000Y-106399000D03*
%TD*%
D10*
%TO.C,SW17*%
X111500000Y-75499000D03*
D11*
X117000000Y-75499000D03*
D10*
X122500000Y-75499000D03*
D12*
X112000000Y-79299000D03*
X117000000Y-81399000D03*
%TD*%
D10*
%TO.C,SW33*%
X250620000Y-80599000D03*
D11*
X256120000Y-80599000D03*
D10*
X261620000Y-80599000D03*
D12*
X251120000Y-84399000D03*
X256120000Y-86499000D03*
%TD*%
D10*
%TO.C,SW4*%
X35500000Y-80599000D03*
D11*
X41000000Y-80599000D03*
D10*
X46500000Y-80599000D03*
D12*
X36000000Y-84399000D03*
X41000000Y-86499000D03*
%TD*%
D10*
%TO.C,SW19*%
X111500000Y-113499000D03*
D11*
X117000000Y-113499000D03*
D10*
X122500000Y-113499000D03*
D12*
X112000000Y-117299000D03*
X117000000Y-119399000D03*
%TD*%
D10*
%TO.C,SW25*%
X193500000Y-89999000D03*
D11*
X199000000Y-89999000D03*
D10*
X204500000Y-89999000D03*
D12*
X194000000Y-93799000D03*
X199000000Y-95899000D03*
%TD*%
D10*
%TO.C,SW23*%
X174500000Y-113499000D03*
D11*
X180000000Y-113499000D03*
D10*
X185500000Y-113499000D03*
D12*
X175000000Y-117299000D03*
X180000000Y-119399000D03*
%TD*%
D14*
%TO.C,H2*%
X100000000Y-133500000D03*
%TD*%
D10*
%TO.C,SW3*%
X16500000Y-119499000D03*
D11*
X22000000Y-119499000D03*
D10*
X27500000Y-119499000D03*
D12*
X17000000Y-123299000D03*
X22000000Y-125399000D03*
%TD*%
D10*
%TO.C,SW36*%
X174500000Y-133599000D03*
D11*
X180000000Y-133599000D03*
D10*
X185500000Y-133599000D03*
D12*
X175000000Y-137399000D03*
X180000000Y-139499000D03*
%TD*%
D10*
%TO.C,SW10*%
X73500000Y-67999000D03*
D11*
X79000000Y-67999000D03*
D10*
X84500000Y-67999000D03*
D12*
X74000000Y-71799000D03*
X79000000Y-73899000D03*
%TD*%
D10*
%TO.C,SW39*%
X269600000Y-119799000D03*
D11*
X275100000Y-119799000D03*
D10*
X280600000Y-119799000D03*
D12*
X270100000Y-123599000D03*
X275100000Y-125699000D03*
%TD*%
D10*
%TO.C,SW11*%
X73500000Y-86999000D03*
D11*
X79000000Y-86999000D03*
D10*
X84500000Y-86999000D03*
D12*
X74000000Y-90799000D03*
X79000000Y-92899000D03*
%TD*%
D10*
%TO.C,SW30*%
X231500000Y-74499000D03*
D11*
X237000000Y-74499000D03*
D10*
X242500000Y-74499000D03*
D12*
X232000000Y-78299000D03*
X237000000Y-80399000D03*
%TD*%
D14*
%TO.C,H6*%
X251000000Y-67499000D03*
%TD*%
D10*
%TO.C,SW28*%
X212500000Y-86799000D03*
D11*
X218000000Y-86799000D03*
D10*
X223500000Y-86799000D03*
D12*
X213000000Y-90599000D03*
X218000000Y-92699000D03*
%TD*%
D15*
%TO.C,U2*%
X153880000Y-91999000D03*
X153880000Y-94539000D03*
X153880000Y-97079000D03*
X153880000Y-99619000D03*
X153880000Y-102159000D03*
X153880000Y-104699000D03*
X153880000Y-107239000D03*
X169120000Y-107239000D03*
X169120000Y-104699000D03*
X169120000Y-102159000D03*
X169120000Y-99619000D03*
X169120000Y-97079000D03*
X169120000Y-94539000D03*
X169120000Y-91999000D03*
%TD*%
D10*
%TO.C,SW38*%
X269600000Y-100699000D03*
D11*
X275100000Y-100699000D03*
D10*
X280600000Y-100699000D03*
D12*
X270100000Y-104499000D03*
X275100000Y-106599000D03*
%TD*%
D10*
%TO.C,SW9*%
X54500000Y-112499000D03*
D11*
X60000000Y-112499000D03*
D10*
X65500000Y-112499000D03*
D12*
X55000000Y-116299000D03*
X60000000Y-118399000D03*
%TD*%
D10*
%TO.C,SW40*%
X154500000Y-135499000D03*
D11*
X160000000Y-135499000D03*
D10*
X165500000Y-135499000D03*
D12*
X155000000Y-139299000D03*
X160000000Y-141399000D03*
%TD*%
D10*
%TO.C,SW29*%
X212500000Y-105799000D03*
D11*
X218000000Y-105799000D03*
D10*
X223500000Y-105799000D03*
D12*
X213000000Y-109599000D03*
X218000000Y-111699000D03*
%TD*%
M02*
