%TF.GenerationSoftware,KiCad,Pcbnew,9.0.7*%
%TF.CreationDate,2026-02-18T21:27:09-08:00*%
%TF.ProjectId,NordBoard,4e6f7264-426f-4617-9264-2e6b69636164,rev?*%
%TF.SameCoordinates,Original*%
%TF.FileFunction,Profile,NP*%
%FSLAX46Y46*%
G04 Gerber Fmt 4.6, Leading zero omitted, Abs format (unit mm)*
G04 Created by KiCad (PCBNEW 9.0.7) date 2026-02-18 21:27:09*
%MOMM*%
%LPD*%
G01*
G04 APERTURE LIST*
%TA.AperFunction,Profile*%
%ADD10C,0.050000*%
%TD*%
G04 APERTURE END LIST*
D10*
X108000000Y-60999000D02*
X89000000Y-60999000D01*
X147500000Y-134149000D02*
X147500000Y-141489000D01*
X12000000Y-71499000D02*
X12000000Y-131499000D01*
X127000000Y-87499000D02*
X127000000Y-65499000D01*
X149500000Y-141489000D02*
X149500000Y-134149000D01*
X208000000Y-60999000D02*
X208000000Y-57999000D01*
X285000000Y-71499000D02*
X285000000Y-131999000D01*
X127000000Y-65499000D02*
X108000000Y-65499000D01*
X149500000Y-87499000D02*
X170000000Y-87499000D01*
X147500000Y-128149000D02*
X147500000Y-120389000D01*
X149500000Y-100999000D02*
X149500000Y-93499000D01*
X147500000Y-87499000D02*
X127000000Y-87499000D01*
X170000000Y-87499000D02*
X170000000Y-65499000D01*
X227500000Y-57999000D02*
X285000000Y-71499000D01*
X189000000Y-65499000D02*
X189000000Y-60999000D01*
X189000000Y-60999000D02*
X208000000Y-60999000D01*
X89000000Y-60999000D02*
X89000000Y-57999000D01*
X108000000Y-65499000D02*
X108000000Y-60999000D01*
X89000000Y-57999000D02*
X69500000Y-57999000D01*
X149500000Y-147489000D02*
X189500000Y-147499000D01*
X149500000Y-128149000D02*
X149500000Y-120389000D01*
X285000000Y-131999000D02*
X265000000Y-131999000D01*
X265000000Y-131999000D02*
X246500000Y-131999000D01*
X107500000Y-147499000D02*
X147500000Y-147489000D01*
X50500000Y-131499000D02*
X107500000Y-147499000D01*
X189500000Y-147499000D02*
X246500000Y-131999000D01*
X208000000Y-57999000D02*
X227500000Y-57999000D01*
X12000000Y-131499000D02*
X50500000Y-131499000D01*
X149500000Y-114389000D02*
X149500000Y-106999000D01*
X147500000Y-93499000D02*
X147500000Y-100999000D01*
X170000000Y-65499000D02*
X189000000Y-65499000D01*
X69500000Y-57999000D02*
X12000000Y-71499000D01*
X147500000Y-106999000D02*
X147500000Y-114389000D01*
%TO.C,B1*%
X147500000Y-106999000D02*
G75*
G02*
X149500000Y-106999000I1000000J0D01*
G01*
X149500000Y-100999000D02*
G75*
G02*
X147500000Y-100999000I-1000000J0D01*
G01*
%TO.C,B2*%
X147500000Y-93499000D02*
G75*
G02*
X149500000Y-93499000I1000000J0D01*
G01*
X149500000Y-87499000D02*
G75*
G02*
X147500000Y-87499000I-1000000J0D01*
G01*
%TO.C,B3*%
X147500000Y-120389000D02*
G75*
G02*
X149500000Y-120389000I1000000J0D01*
G01*
X149500000Y-114389000D02*
G75*
G02*
X147500000Y-114389000I-1000000J0D01*
G01*
%TO.C,B5*%
X147500000Y-147489000D02*
G75*
G02*
X149500000Y-147489000I1000000J0D01*
G01*
X149500000Y-141489000D02*
G75*
G02*
X147500000Y-141489000I-1000000J0D01*
G01*
%TO.C,B4*%
X147500000Y-134149000D02*
G75*
G02*
X149500000Y-134149000I1000000J0D01*
G01*
X149500000Y-128149000D02*
G75*
G02*
X147500000Y-128149000I-1000000J0D01*
G01*
%TD*%
M02*
