M48
; DRILL file {KiCad 9.0.7} date 2026-02-18T21:27:09-0800
; FORMAT={-:-/ absolute / inch / decimal}
; #@! TF.CreationDate,2026-02-18T21:27:09-08:00
; #@! TF.GenerationSoftware,Kicad,Pcbnew,9.0.7
; #@! TF.FileFunction,NonPlated,1,2,NPTH
FMAT,2
INCH
; #@! TA.AperFunction,NonPlated,NPTH,ComponentDrill
T1C0.0197
; #@! TA.AperFunction,NonPlated,NPTH,ComponentDrill
T2C0.0669
; #@! TA.AperFunction,NonPlated,NPTH,ComponentDrill
T3C0.0866
; #@! TA.AperFunction,NonPlated,NPTH,ComponentDrill
T4C0.1339
%
G90
G05
T1
X5.8051Y-3.4901
X5.8051Y-3.5193
X5.8051Y-3.5484
X5.8051Y-3.5775
X5.8051Y-3.6067
X5.8051Y-3.6358
X5.8051Y-4.0216
X5.8051Y-4.0507
X5.8051Y-4.0799
X5.8051Y-4.109
X5.8051Y-4.1381
X5.8051Y-4.1673
X5.8051Y-4.5488
X5.8051Y-4.5779
X5.8051Y-4.607
X5.8051Y-4.6362
X5.8051Y-4.6653
X5.8051Y-4.6944
X5.8051Y-5.0905
X5.8051Y-5.1196
X5.8051Y-5.1488
X5.8051Y-5.1779
X5.8051Y-5.207
X5.8051Y-5.2362
X5.8051Y-5.6157
X5.8051Y-5.6448
X5.8051Y-5.674
X5.8051Y-5.7031
X5.8051Y-5.7322
X5.8051Y-5.7614
T2
X0.6496Y-3.2086
X0.6496Y-3.9567
X0.6496Y-4.7047
X1.0827Y-3.2086
X1.0827Y-3.9567
X1.0827Y-4.7047
X1.3976Y-3.1732
X1.3976Y-3.9212
X1.3976Y-4.6732
X1.8307Y-3.1732
X1.8307Y-3.9212
X1.8307Y-4.6732
X2.1457Y-2.933
X2.1457Y-3.6811
X2.1457Y-4.4291
X2.5787Y-2.933
X2.5787Y-3.6811
X2.5787Y-4.4291
X2.8937Y-2.6771
X2.8937Y-3.4252
X2.8937Y-4.1732
X3.3268Y-2.6771
X3.3268Y-3.4252
X3.3268Y-4.1732
X3.6417Y-2.7992
X3.6417Y-3.5472
X3.6417Y-4.2952
X4.0748Y-2.7992
X4.0748Y-3.5472
X4.0748Y-4.2952
X4.3898Y-2.9724
X4.3898Y-3.7204
X4.3898Y-4.4685
X4.3898Y-5.2559
X4.8228Y-2.9724
X4.8228Y-3.7204
X4.8228Y-4.4685
X4.8228Y-5.2559
X5.1772Y-5.3346
X5.6102Y-5.3346
X6.0827Y-5.3346
X6.5157Y-5.3346
X6.8701Y-2.9724
X6.8701Y-3.7204
X6.8701Y-4.4685
X6.8701Y-5.2598
X7.3031Y-2.9724
X7.3031Y-3.7204
X7.3031Y-4.4685
X7.3031Y-5.2598
X7.6181Y-2.7952
X7.6181Y-3.5433
X7.6181Y-4.2913
X8.0512Y-2.7952
X8.0512Y-3.5433
X8.0512Y-4.2913
X8.3661Y-2.6771
X8.3661Y-3.4173
X8.3661Y-4.1653
X8.7992Y-2.6771
X8.7992Y-3.4173
X8.7992Y-4.1653
X9.1142Y-2.933
X9.1142Y-3.6771
X9.1142Y-4.4252
X9.5472Y-2.933
X9.5472Y-3.6771
X9.5472Y-4.4252
X9.8669Y-3.1732
X9.8669Y-3.9212
X9.8669Y-4.6693
X10.3Y-3.1732
X10.3Y-3.9212
X10.3Y-4.6693
X10.6142Y-3.9645
X10.6142Y-4.7165
X10.615Y-3.2126
X11.0472Y-3.9645
X11.0472Y-4.7165
X11.048Y-3.2126
T3
X1.8307Y-2.6378
X3.937Y-5.2559
X5.5512Y-4.6653
X6.2205Y-4.6653
X7.7559Y-5.2559
X9.8819Y-2.6574
T4
X0.8661Y-3.2086
X0.8661Y-3.9567
X0.8661Y-4.7047
X1.6142Y-3.1732
X1.6142Y-3.9212
X1.6142Y-4.6732
X2.3622Y-2.933
X2.3622Y-3.6811
X2.3622Y-4.4291
X3.1102Y-2.6771
X3.1102Y-3.4252
X3.1102Y-4.1732
X3.8583Y-2.7992
X3.8583Y-3.5472
X3.8583Y-4.2952
X4.6063Y-2.9724
X4.6063Y-3.7204
X4.6063Y-4.4685
X4.6063Y-5.2559
X5.3937Y-5.3346
X6.2992Y-5.3346
X7.0866Y-2.9724
X7.0866Y-3.7204
X7.0866Y-4.4685
X7.0866Y-5.2598
X7.8346Y-2.7952
X7.8346Y-3.5433
X7.8346Y-4.2913
X8.5827Y-2.6771
X8.5827Y-3.4173
X8.5827Y-4.1653
X9.3307Y-2.933
X9.3307Y-3.6771
X9.3307Y-4.4252
X10.0835Y-3.1732
X10.0835Y-3.9212
X10.0835Y-4.6693
X10.8307Y-3.9645
X10.8307Y-4.7165
X10.8315Y-3.2126
M30
