M48
; DRILL file {KiCad 9.0.7} date 2026-02-18T21:27:09-0800
; FORMAT={-:-/ absolute / inch / decimal}
; #@! TF.CreationDate,2026-02-18T21:27:09-08:00
; #@! TF.GenerationSoftware,Kicad,Pcbnew,9.0.7
; #@! TF.FileFunction,Plated,1,2,PTH
FMAT,2
INCH
; #@! TA.AperFunction,Plated,PTH,ComponentDrill
T1C0.0350
; #@! TA.AperFunction,Plated,PTH,ComponentDrill
T2C0.0472
%
G90
G05
T1
X5.0346Y-3.6239
X5.0346Y-3.7239
X5.0346Y-3.8239
X5.0346Y-3.9239
X5.0346Y-4.0239
X5.0346Y-4.1239
X5.0346Y-4.2239
X5.6346Y-3.6239
X5.6346Y-3.7239
X5.6346Y-3.8239
X5.6346Y-3.9239
X5.6346Y-4.0239
X5.6346Y-4.1239
X5.6346Y-4.2239
X6.0583Y-3.622
X6.0583Y-3.722
X6.0583Y-3.822
X6.0583Y-3.922
X6.0583Y-4.022
X6.0583Y-4.122
X6.0583Y-4.222
X6.6583Y-3.622
X6.6583Y-3.722
X6.6583Y-3.822
X6.6583Y-3.922
X6.6583Y-4.022
X6.6583Y-4.122
X6.6583Y-4.222
T2
X0.6693Y-3.3582
X0.6693Y-4.1063
X0.6693Y-4.8543
X0.8661Y-3.4409
X0.8661Y-4.1889
X0.8661Y-4.937
X1.4173Y-3.3228
X1.4173Y-4.0708
X1.4173Y-4.8228
X1.6142Y-3.4055
X1.6142Y-4.1535
X1.6142Y-4.9055
X2.1654Y-3.0826
X2.1654Y-3.8307
X2.1654Y-4.5787
X2.3622Y-3.1653
X2.3622Y-3.9133
X2.3622Y-4.6614
X2.9134Y-2.8267
X2.9134Y-3.5748
X2.9134Y-4.3228
X3.1102Y-2.9094
X3.1102Y-3.6574
X3.1102Y-4.4055
X3.6614Y-2.9488
X3.6614Y-3.6968
X3.6614Y-4.4448
X3.8583Y-3.0315
X3.8583Y-3.7795
X3.8583Y-4.5275
X4.4094Y-3.122
X4.4094Y-3.87
X4.4094Y-4.6181
X4.4094Y-5.4055
X4.6063Y-3.2047
X4.6063Y-3.9527
X4.6063Y-4.7007
X4.6063Y-5.4881
X5.1969Y-5.4842
X5.3937Y-5.5669
X6.1024Y-5.4842
X6.2992Y-5.5669
X6.8898Y-3.122
X6.8898Y-3.87
X6.8898Y-4.6181
X6.8898Y-5.4094
X7.0866Y-3.2047
X7.0866Y-3.9527
X7.0866Y-4.7007
X7.0866Y-5.4921
X7.6378Y-2.9448
X7.6378Y-3.6929
X7.6378Y-4.4409
X7.8346Y-3.0275
X7.8346Y-3.7756
X7.8346Y-4.5236
X8.3858Y-2.8267
X8.3858Y-3.5669
X8.3858Y-4.3149
X8.5827Y-2.9094
X8.5827Y-3.6496
X8.5827Y-4.3976
X9.1339Y-3.0826
X9.1339Y-3.8267
X9.1339Y-4.5748
X9.3307Y-3.1653
X9.3307Y-3.9094
X9.3307Y-4.6574
X9.8866Y-3.3228
X9.8866Y-4.0708
X9.8866Y-4.8189
X10.0835Y-3.4055
X10.0835Y-4.1535
X10.0835Y-4.9015
X10.6339Y-4.1141
X10.6339Y-4.8661
X10.6346Y-3.3622
X10.8307Y-4.1968
X10.8307Y-4.9488
X10.8315Y-3.4448
M30
